<svg width="300" height="300" viewBox="0 0 417 409" fill="none" xmlns="http://www.w3.org/2000/svg">
<path d="M44 314.285C60.1667 154.452 110 -119.015 180 65.785C267.5 296.785 162.5 223.285 330.5 118.285C498.5 13.2849 372.5 415.285 285 404.785C197.5 394.285 172.5 48.7849 127.5 240.785" stroke="#FFE6EE" stroke-width="7"></path>
<path d="M338.335 68.1509C262.335 82.6509 211.835 5.15086 214.335 120.651C216.835 236.151 420.334 311.651 338.335 216.151C272.735 139.751 447.5 220 407 246C366.5 272 277.135 490.651 202.335 368.651C127.535 246.651 208.501 272.818 258.335 301.151" stroke="#B20A42" stroke-width="7"></path>
<path d="M237 66.2262C144.333 49.3929 -24.5999 41.1262 41.0001 142.726C123 269.726 321 182.726 244.5 268.226C183.3 336.626 57.3333 296.726 2 268.226" stroke="#78072D" stroke-width="7"></path>
<circle cx="123.5" cy="200.5" r="23.5" fill="#44107A"></circle>
<circle r="18.5" transform="matrix(-1 0 0 1 280.5 62.5)" fill="#44107A"></circle>
<circle r="18.5" transform="matrix(-1 0 0 1 369.5 287.5)" fill="#44107A"></circle>
<circle r="18.5" transform="matrix(-1 0 0 1 197.5 347.5)" fill="#44107A"></circle>
<circle cx="124.5" cy="200.5" r="50" stroke="#FF1462" stroke-width="11"></circle>
</svg>
