<svg width="300" height="300" viewBox="0 0 417 409" fill="none" xmlns="http://www.w3.org/2000/svg"><path d="M44 314.285c16.167-159.833 66-433.3 136-248.5 87.5 231-17.5 157.5 150.5 52.5s42 297-45.5 286.5-112.5-356-157.5-164" stroke="#FFE6EE" stroke-width="7"/><path d="M338.335 68.15c-76 14.5-126.5-63-124 52.501 2.5 115.5 205.999 191 124 95.5C272.735 139.751 447.5 220 407 246S277.135 490.651 202.335 368.651c-74.8-122 6.166-95.833 56-67.5" stroke="#B20A42" stroke-width="7"/><path d="M237 66.226c-92.667-16.833-261.6-25.1-196 76.5 82 127 280 40 203.5 125.5-61.2 68.4-187.167 28.5-242.5 0" stroke="#78072D" stroke-width="7"/><circle cx="123.5" cy="200.5" r="23.5" fill="#44107A"/><circle r="18.5" transform="matrix(-1 0 0 1 280.5 62.5)" fill="#44107A"/><circle r="18.5" transform="matrix(-1 0 0 1 369.5 287.5)" fill="#44107A"/><circle r="18.5" transform="matrix(-1 0 0 1 197.5 347.5)" fill="#44107A"/><circle cx="124.5" cy="200.5" r="50" stroke="#FF1462" stroke-width="11"/></svg>