<svg width="166" height="146" fill="none" xmlns="http://www.w3.org/2000/svg"><path d="m110.497 91.98.097-.152-.167-.11.066-.151-.218-.133v-.58l.416-.811-.136-.106-.677.098-.234-.951-.743-.733-1.164-2.9-.954-1.267.039-.398.347.226.112-.405.144.132.269-.136.125-.3.315-.164.455.07.261-.253.187.097.237-.257.397-.008.012-.386.541-.187.008-.237.374-.496.233-.074-.163-.448.311-.02.047-.413.288-.218-.152-.238.385-.03.452-.39.023-.157-.167-.105-.027-.167.626-.6.288-.071-.027-.327.432-.254.031-.253-.151-.098.35-.043-.335-.346.315-.004.02-.183.156-.11-.059-.187.382-.02-.109-.124.128-.16-.023-.234.132-.163.203.003.109-.218-.164-.28.514.214.183-.027.097-.164.549.168.152-.106-.055-.253.168-.04.257-.323.268.063.133.245.556-.015-.027-.222.237-.156.024-.351.233-.067.389-.74.689-.604.187.171.397-.132.471.156.238-.125.459.011.105-.074-.011-.296.42-.534.537-.18 1.218-.007.67-.35.463.319.203.889.879.28.222.644.405.011.475.417.479.928.369.433.288-.055.452.3.082.425.591.195.269.254.549.222.082.311.33.363.308-.133.436.14.124.207-.046.421.502.609.179.576.358.468-.035.41.234.276-.374.975-.814.296-.136.257-.288.125-.008.858.273.187-.378.136.004.452-.553.098-.299.245-.277.059-.054.37-.281.25.067.378-.265 1.04.265.266.183.58-.051.14-.416.11-.129.32-.241-.067-.619.468-1.841 1.123-.623.203-.389-.012-.647.316-.591-.016-.709-.218-.35.308-.397.124-.65-.163-.183.066-.269.238-.105.42-.463.582-.736.124-.214.28.409.43.171.429-.397.58-.42.18-.448.385.316.402-.16.265-.078.495-.471.468.027.819-.276-.227-.428.121-1.23-.226-.296-.503-.311.156-1.176-.195-.646-.873-.67-.433-.078-.39-.26-.073-.277-.675-.521-.152-.257-.358-.066-.359-.717.246-.101-.016.02-.156Z" fill="#FF1462"/><path d="m127.005 88.265.518.667.397.25.007.428-.455.596-.389-.043-.553.332.14.358-.385.242-.137.374-.467-.124-.272.713-.872-.355-.358.873.323.62-.249.48.194.436.464.074.416.632.903.183.195-.027.117-.756.214-.082.774.382-.027.616 1.791.463.692.344.195-.036.14-.19h.611l.526-.234.759.534.362.097.245.253.596-.12.151.167.662.164.101.148.148-.226.347.027.144.39.482.222.148.183.265.14.347-.132-.004.293.233.093.094.324.28-.074.136.195.417.038.132.5.265.023.249.253.074.23-.098.304.203.195-.047.363.304.191.113.464.225.183-1.603 2.194-1.764 1.778-.272.195-.802.195-.358.358-.397.651-.479.328-.074.214-.763.511-.078.226-.517.335-.701.246-.3.53-.377.285-.059.499-.276.074-.638.908-.156.039-.284.627-.319.149-.487.483-.074.288-.432.546.023.172-.755.573-.163.378-.526.522-.054.199-1.269 1.189.004.097-.394.23-.33.573-.884.741-.113.292-.436.215.004.16-.494.44-.004.249-.277.117-.163.273-.771.312-.054.179-.545.527-.004.183-.288.016-.79.643-1.18.479-.338.374-.082.515-.308.378.043.082-1.183.744-.203.332-.183.05-.218.425-1.241.749-.53.175-.299.413-.374.215-.533.538-.826.468-1.187 1.029-1.72 1.103-.277.358-.474.133-.542.624-.626.183-.452.394-.7.117-.732.576-1.254.293-1.961 1.189-.806.265-.868-.168-.837.059-1.121-.46-1.16-.238-1.292.035-1.07.191-.577.253-.833.577-.35.347-.323.569-.199.959.6.437.276.542-.382-.031-.295.249-.55.035-1.116-.249-.62.058-1.023-.495-.88-.273-.899-.09-.985.09-.63.215-.382.292-.105.834-.568.519-.32.545.374.328-.284.004-.09.265-.992-.378-.39.066-.54-.246-.277.051-.066.195-1.062-.246-.296-.109-.938-.717-.709-.02-1.635-.592-3.553-.507-1.596-.359-.121-.537.6-.796-1.433-.538-.035-.561-.479-.07-.288.257-.996-.191.451-.397.016-.421 1.07-.406.226-.386.284.183.818-.085.054-.464-.728-.643-.082-.913-.86-.432-.097-.222-1.58-.032-.316-.502-1.771-.059-.619.133-.167-.156-1.437.374-1.49-.156-.195-.347-.027-.612.366-.062.619-1.146.194-.09.374-.928.564-.549.078-.605-.284-.323.354-.324-.132-.538.549-.514.105-.285.759.024.136-.219-.3-1.068.627.846.553-.624.84.121 1.032.324.07-.694-.366-.195-.124-.659-.74-.506.28-.082.175-.199-.26-1.158-.436-.292.07-.581-.238-.433 1.051-.542.133-.296.657.292.429-.604 2.156.063.12-.234-.268-.3.226-.636.825-.475.164-.223.591.328.175.413.46.086 1.565-.85-.047-.292.487.066.455-.37.004-.378-.308-.028-.035-.436.393-.032-.007-.288-.21-.117.175-.269.428.101.447-.67-.225-.183.097-.129-.405-.308-.549.098.284-.69.25.031-.055-.335.214-.008-.194-.339-.106-.441.156-.195 1.078.382.495-.483v-.195l1.942-.074.152-1.45-.098-.343.191-.675-.085-.116.416-.207.023-.788.775-.109.549.18.93-.145.358-.444.355.195.039-.53.786-.203.389-.417.817.004 1.627-.893 1.363.308.296-.199-.004-.647.187-.183.272-.008.374-.604-.23-.284.288-.036.234-.44-.18-.328.53-.627-.074-.522-.436-.383.136-.241.324-.129.256-.487-.727-.094-.152-2.011 1.417-.16.155.086.152.577.728.273.467.027 1.222-.795.024-.659.226-.18.525.305.428-.378.705-.266.21-.003.358.276.202.004.125-.179-.101-.285.214-.093.288.117.206.358.479.164.28.445.654.062.358-.207.58-.058.378.331.043.48.716.323.864.055-.054.234.365-.203.308.14.28-.206.21.03.576-.237.483.41.168-.079.035-.167.615.004.093-.507.276-.207.627-.027-.016-.25-.303-.257.035-.171.771-.129.334.226.191-.144v-.398l.498.086.358-.288.082.078.199-.094.152.175.424-.066.132-.269-.261-.136.004-.183.428.078.257-.07-.004-.125-.327-.156.035-.246.538.012.186-.215-.077-.214-.257.024-.156-.398.459-.094-.019.156.101.016.716-.246.067.359.256.355.522.152.276.674.261.074.082.39.669.433.647.873 1.171.195.312-.16.292.507 1.23.226.428-.121.276.226-.023-.815.471-.468.078-.495.159-.265-.315-.401.448-.382.42-.18.397-.58-.171-.43-.409-.432.214-.28.736-.125.459-.581.105-.421.269-.234.183-.066.65.167.397-.124.35-.308.709.214.587.016.647-.316.389.012.623-.203 1.837-1.154Z" fill="#FF1462"/><path d="m111.933 51.385.343-.125-.008-.26.529-.102.101.054.039.293.825-.051.417.265.218-.401.969-.16.467-.546.347-.125.327.219-.082.436.335.69.467.468.475.222.249.534.3-.46.295.491.261.028.354-.18.351.273.381.234.705-.023.319.627.35-.276.23-.012.374.491.35.175-.214.421.712-.538.428-.023.024-.218-.378-.05.319-.309.604.222 1.136.718.362-.059.304.16.194-.335.67-.265.253.039.3.323.288-.035.07.534.553.947.412-.202.553.027.389.398.331.046.167.23.296.004.125.113-.043.32.615-.14.475.296.171.226.066.417.199.12-.055.22.662.576-.117.238.425.358.389.722.253.05.214-.179.315-.016.008-.288.199-.199.587.016-.599.269.124.113-.105.386.537.237.145.566-.993.736v.21l.249.473-.054.697.214.41-.584 1.122.011.675-.311.32-.121.416.059.324.424.448-.039.667-.459.331-.238.608-1.019.16-.822 1.068-.712.328-.424.522-.744.191-.377.491.105.429-.082.152-.389-.008-.199.195-.63-.078-1.028.335-.413.453.008.452-.35.292-.296.916-.405-.011-.222-.644-.879-.28-.203-.89-.463-.319-.67.351-1.218.008-.537.18-.42.533.011.296-.105.075-.459-.012-.238.125-.471-.156-.397.132-.187-.171-.689.604-.389.74-.233.067-.024.35-.237.156.027.223-.556.015-.133-.245-.268-.063-.257.324-.168.039.055.253-.152.105-.549-.167-.097.164-.183.027-.514-.215.164.281-.109.218-.203-.003-.132.163.023.234-.128.16.109.125-.382.02.059.186-.156.11-.02.183-.315.004.335.346-.35.043.151.098-.031.253-.432.254.027.327-.288.07-.626.6.027.168.167.105-.023.156-.452.39-.385.031.152.238-.288.218-.047.414-.311.02.163.447-.233.074-.374.496-.008.237-.541.187-.012.386-.397.008-.237.257-.187-.097-.261.253-.455-.07-.315.164-.125.3-.269.136-.144-.132-.112.405-.347-.226-.039.398.954 1.267 1.164 2.9.743.733.234.95.677-.097.136.106-.416.81v.581l.218.133-.066.152.167.109-.097.152-.464.097.16.398.253-.023.078.214-.187.215-.537-.012-.035.245.327.156v.129l-.253.07-.428-.078-.004.187.261.137-.133.269-.424.066-.152-.175-.198.093-.082-.078-.354.288-.502-.081v.397l-.191.144-.335-.23-.771.133-.035.172.304.257.012.25-.627.027-.28.21-.09.507-.615-.004-.039.168-.167.078-.483-.41-.576.238-.21-.027-.28.206-.308-.14-.366.203.051-.234-.864-.055-.717-.327-.039-.48-.377-.331-.58.058-.358.207-.654-.062-.284-.445-.48-.16-.201-.358-.288-.117-.215.094.102.284-.125.18-.202-.005-.358-.272h-.215l-.7.269-.432.374-.526-.304-.226.18-.023.658-1.222.795-.467-.023-.732-.273-.152-.577-.152-.086-1.417.156-.774-.67-.903-.07-.374-.593-.845-.522-.381-.663-.514-.292-.4-.398-.153-.577-.443-.195-.471-.815-.483-.315-.677-1.256-.292-.83-1.168-.327-.284-.835-.642-.16-.475-.65-.53-.11-.167-.311-.237.05-.226-.097-.779-1.135-.07-.428 5.477-11.69-.533-.196.245-1.333-.101-.19.47-.53.324-1.424-.18-.02-.213-.47.377-.028.078-.265.3-.059.53-1.415-.273-.471.848-.23.094-.3.264-.285-.081-.312.334-.53.448-.074.658-.6.101-.219-.12-.195.287-.401.76-.187.17-.3.58-.445.845-.339.432.035.366-.339.783.152.202-.347 1.257-.717.25-.035.389.471.603-.03.732.198.222.893.144.09.362-.094.039-.187-.191-.359.311-.643 1.176-1.138.3-.082-.012-.413.366-.507.35-.11.292.145.276-.37.662.105.281-.113.502.117.183-.059-.678-.417.113-.339.319-.12-.004-.586-.677-.728-.128-.398.124-.113.355.035.237-.234.136.023.3-.475.564.07.02-.608.416-.448.436-.098.152.238.121-.027.101-.359.366-.335.572-.3.222.136.37-.343.564.526.094-.152-.047-.713.152-.16.14.012.253.452.677.253.607-.093.495.09.194-.121.144.167-.078.293.109.042.273-.109.771-1.013.33-.21.857.779.132-.012.253-.292.323-.074.421-.663.004-.53.237-.039Z" fill="#FF1462"/><path d="m122.711 33.294 1.448-.16.288.768-.661.55-.643.07-.081 1.707-.211.343.18.3-.242.382.545 1.95 1.569.14 1.105-1.341 1.005-.273.241.85-.958.386-.113.397.269.324-.479.892.14.11-.062.479-.642-.11-.358 1.9-.592-.028-.171.09-.171-.332-.07.102-.413-.012-.825-.215-.378.344-.148.635-.401-.129-.058.152-.16-.05-.447.167.159.546.366.28.07.85.95.308.031.71.273.039.054.175.385.234.713-.308.642-.066.44.912-1.129.554-.023.67-1.254.094-.089.339-.654-.094-.428.332-.004.354-.389.028-.047.436-.452.04-.05.175-.421.078-.206.72.195.09.077.3-.544.184.003.167-.33.102-.004.393.21.125-.249.5-.351-.274-.354.18-.261-.028-.295-.49-.3.46-.249-.535-.475-.222-.467-.468-.335-.69.082-.436-.327-.219-.347.125-.467.546-.969.16-.218.401-.417-.265-.825.05-.039-.292-.101-.054-.529.101.008.261-.343.125.292-1.618-.35-.44.233-.055.199-.943.101-.027.144-.464-.965.035-.121-.335-.183-.149-1.417.316.094.289-1.336.514-.004-.526-.428-.791.604-.573.802-.535-.355-1.543.67.078.031-.425.584-.086.482-2.011-.023-.772 1.76-.955.116.456.343.475.518-.276.038.444.857-.284.802-.106v-.218l.463.05.004-.237.264-.168-.159-.588.292-.105-.452-1.143.81-.124.296-.195.132-.406.452-.323-.343-1.501.448-.18.319.055.004.156-.269.09.094.335.222-.004.21-.214.537.035.813-.254v-1.075l.752-.188.066.332 1.207-.238.073-.526.954.004.171.265.425-.258.218-.428-.358.02-.355-.753Z" fill="#FF1462"/><path d="m133.49.133.918.023 1.137.546.483.007.342.266.537.152.098.237.369.055.678.557.996-.16.658.624 1.203-.125.771-.276.509.109.654-.059.292.137.374-.257.471.078 1.172-.266 1.051.106 1.463.471.822-.187.436.367h.595l.506.807 2.515 8.12-.129 2.463.113.729 1.339 1.641.059 1.111.673 1.758 1.144.81-.408.196-.584-.074-.46.456-.085.425-.222.085-.308.024-.237-.472-.21.043-.366.394-.222-.234-.253.206-.199-.007-.759-.347-.447.471-.312-.105-.408.351-.553-.117-.214.246 2.257-.063v.604l-.544.511.151.398-.05.771-.44.468-.027.37-.417.305.557.347-.214.397.907.016-.452.429.238.358.871.51.592.106v.593l-.405.03.016.165-.432-.098v.293l-.53.385h-1.362l.179.414v.842h.417v.249l.856-.113.089.776-.342.043.163.81-1.416-.155-.604.151-.198.34-1.339.12-.195-.116-.206-.503-.335-.067v-.869l-.288-.682-.21-.16-.604-.136-.163-.183v-.776l-.167-.137.229-.362v-.32l-.105-.273-.56-.117-.23-.25.397-.545-.833-.729-.498.187-.101.304-.736.308-.148-.315-.284.109-.008.682-.588.588-.401-.53-1.074-.245-.385-.242-.164.468-.665.008-.514-.32-.039.698-.545-.421-.907.031.222.877-.121.292.553.468-.148.737-.596.078-2.522 2.078-.004.374-.701.066.024.359.377.105.269.6-.455.156-.004.265-.308.449-1.79-.312.042-.293-.665-.67-.253.043-.281-.351.074-.331-.443-.265-.004-.34-.623.293-.054-.086.33-.554-.346-.931.016-.324-1.044-.26-.58.155-.007.784-.215.1.086.324-1.07.456-.401-.884-.121.039-.101-.203-.934-.168.163.83-.467-.148-.487.145-.486-.156-.662.113-.381.312-.942.374.015.842-1.487.35-.011.363-.966.3.051.647.16.051 1.051-.238.179-.253 1.093-.34.355.753.358-.02-.218.43-.425.257-.171-.265-.954-.004-.073.526-1.207.238-.066-.331-.752.187-.735-1.213-.919.102-.054-.566-.553-.093.101-.522.385-.09.495.37.498-.027.175-.725-1.459-.74-.907-.067-.331-.207-.316.067-.136.241-.424-.047-.016-.226.288-.004-.089-.33-.732-.172-.058.627-.685-.085-.44.265-.413-.41h-.475l-.335.21.032.632-.51.686-.312-.109-.214-.471-1.284.148-.615-.768-1.363-.063.008-.276-.307-.59-.728-.276-.23-1.875-.417.012-.05.561-.339-.008-.163.23-1.581.577-.179.293-.584-.04-.692-.522-.573.102-1.533-.215-.374-.752.047-1.185.187-.016.089-.226.452-.3.455-1.13.389-.421.456-.445.654-.187.155-.553.561-.41.471.024.451-.37.351-.13-.008-.463.16-.207-.129-.25.164-.198-.179-.28.042-.355.238-.219.237-.697-.027-.37.144-.165.047-.49.21-.515-.012-.199-.152-.027.187-.191-.062-.289.171-.88.098-.297.245-.18.085-.522.265.195-.027.258.288-.11.206-.265-.19-.37.385-.195.124-.277.425-.062-.172-.242.028-.218.194.152.152-.11.133.118.182-.043.071-.094-.195-.25.163-.147.277.101.109-.183.276-.05.327-.242.245-.566.195.031v.234l.241.016.031-.308.269-.082-.062.289.198.066.304-.421.852-.07.296-.324.129-.908.237-.168-.012-.296.094-.066.451.117.393-.289.288.37.25-.046.112-.347.312-.285-.199-.378.242.066.257-.132.077-.273.721-.25.401-.35.031-.5.12-.194-.093-.343.35-.055.705-.538.093-.195-.085-.577.404-.16.701-.596.062-.623.413-.449.588-.265.19-.312.436-.187.242-.261 1.039-.066.642.18.413-.25.759-.055.903-.503 1.125-.312.008-.234.362-.179.506.144.564-.943-.07-.706.101-.218.191-.078.195-.542.202-.152 1.183-.03.499-.356.72.129.436-.047.194.168 1.273-.406.568.106.18-.261.377-.113.37.136.409-.308.249.133Z" fill="#FF1462"/><path d="m155.77 20.161.133.324.222 2.1.751 1.252.23 1.653-.098 2.498.362 4.02-.031 2.553-.085 1.126-.362.8-.078.456-.008.374.198.066.121 1.251-.751 2.16.444 1.352-1.137.523-4.496-3.119-1.051.273-.595.815-1.289 1.146-.156.737-1.35 2.763-.888 1.014-.642 1.076-.381 1.653.019 1.738.148 1.193.117.168.183-.032.611-.538.148.768.65.655.05.382-.183.484.082.253.93.928.826 1.095 1.413.57-1.102 1.422-.284-.023-.463-.375-.277.075-.225-.082-.993.238-.319-.227-.09-.362-.482.086-.374.32-.459-.324-.242.035-.272-.277-.518-.183-.479.047-.595.425-.767-.145-.611.082-.168-.066-.066-.37-.381-.078-.253.296-.331-.031-.471.136-.561.464-.439.12-.324.387-.844-.277-.502.288-.522-.07-.323-.206-.829.273-.471.904-.308-.144-.587-.016-.199.199-.008.288-.315.016-.214.18-.253-.051-.389-.721-.425-.36.117-.237-.662-.577.055-.218-.199-.121-.066-.417-.171-.226-.475-.296-.615.14.043-.32-.125-.113-.296-.004-.167-.23-.331-.047-.389-.397-.553-.027-.412.202-.553-.947-.07-.534-.288.035-.3-.323-.253-.04-.67.266-.194.335-.304-.16-.362.059-1.136-.718-.604-.222-.319.308.378.05-.024.219-.428.023-.712.538.214-.42-.35-.176-.374-.491-.23.012-.35.276-.319-.627-.705.023-.381-.234.249-.499-.21-.125.004-.393.33-.102-.003-.167.544-.184-.077-.3-.195-.09.206-.72.421-.078.05-.176.452-.039.047-.436.389-.028.004-.354.428-.332.654.094.089-.34 1.254-.093.023-.67 1.129-.554-.44-.912-.642.066-.713.308-.385-.234-.054-.175-.273-.04-.031-.709-.95-.307-.07-.85-.366-.281-.159-.546.447-.167.16.05.058-.152.401.129.148-.635.378-.343.825.214.413.012.07-.102.171.332.171-.09.592.027.358-1.898.642.109.062-.48-.14-.109.479-.892-.269-.324.113-.397.958-.386-.241-.85-1.005.273-1.105 1.34-1.569-.14-.545-1.949.242-.382-.18-.3.211-.343.081-1.707.643-.07.661-.55-.288-.768-1.448.16-1.093.339-.179.253-1.051.238-.16-.05-.051-.648.966-.3.011-.362 1.487-.351-.015-.842.942-.374.381-.312.662-.113.486.156.487-.145.467.149-.163-.83.934.167.101.203.121-.04.401.886 1.07-.457-.086-.323.215-.102.007-.783.58-.156 1.044.261-.016.324.346.931-.33.554.054.086.623-.293.004.34.443.265-.074.33.281.352.253-.043.665.67-.042.293 1.79.312.308-.449.004-.265.455-.156-.269-.6-.377-.105-.024-.359.701-.066.004-.374 2.522-2.078.596-.078.148-.737-.553-.468.121-.292-.222-.877.907-.031.545.42.039-.697.514.32.665-.008.164-.468.385.242 1.074.245.401.53.588-.588.008-.682.284-.11.148.316.736-.308.101-.304.498-.187.833.73-.397.545.23.25.56.116.105.273v.32l-.229.362.167.137v.776l.163.183.604.136.21.16.288.682v.87l.335.066.206.503.195.116 1.339-.12.198-.34.604-.151 1.416.155-.163-.81.342-.043-.089-.776-.856.113v-.25h-.417v-.841l-.179-.414h1.362l.53-.386v-.292l.432.098-.016-.164.405-.031v-.593l-.592-.105-.871-.51-.238-.36.452-.428-.907-.016.214-.397-.557-.347.417-.304.027-.37.44-.468.05-.772-.151-.398.544-.51v-.605l-2.257.063.214-.246.553.117.408-.35.312.104.447-.471.759.347.199.007.253-.206.222.234.366-.394.21-.043.237.472.308-.024.222-.085.085-.425.46-.456.584.074.408-.195.031.183ZM36.788 30l.28.242.304.027.26.285.242-.14.16.194.397.082.284.557.891.608.393.69.199.686.284.008.027.195-.179.215.07.237.331.148-.004.336.506.37-.206.261.253.117-.031.168.218.495.428.171.043.343.218.024-.059.28.148.051.242-.164.113.082-.047.184-.28.078-.113.448.027.136.35.218.246.445-.394.495.312.023-.066.581.432.456.12.468.23.152-.117.472.409-.234.012.573.23.23-.082.413.365.491-.214.534.183.304-.078.351.125.187-.148.312.12.156.2.008.015.277-.386.382-.112.639-.23.44-.25.117-.587.866-.124.382-.215.097-.21.324-.237.035-.105.355-.094.686.288.998-.003.557-.187.37.19.394-.02.69.211.19-.023.227.381.226.05.589.223-.359.545-.152.303-.285.183.02.101-.191.744-.288.416.16.323-.024.475.464.565.031.665.246.74-.285.553-.078.323.11.428-.27.51-.023.296.004 1 .401.3-.156.342-.004.405.21.736-.057.844-.745.02-.78-.14-.237.082-.211.33-.226 1.406.066.965-.417.33-.589.818-.834-.008-.245.183-.148.203-.838.346-.207.238-.316 1.113-.331-.012-.347.366-.18-.035-.222.308-.308.319-.023.167-.21.717.253.163-.105.14-.265.05-.581.246.054.268-.425.62.035.081 3.349-.124.043-.117.288.16 1.345.085.117.362.031.989-.066.167.355.572-.035.164.097.14.386.144-.242.117.016.517.476.288.1-.404.92.346.52-.358.214-.047.452.288.585.04.545.427.527-.307.183-.436.039-.136 1.033.054.456.354.659.662-.184.113.351.378.23.75 1.053.865.046.385.133.72.659.382-.148.346.378-.148.374 1.262.008.459.444 1.028.437.112-.008.432-.748.783.163.35-.257-.047-.187-.365-.07.334-.573.526.206.37-.008-.187-.783.226-.429.75.507-.295.842-.074 1.863.619.219-.257 1.173.339.327 3.13-.713.229.394-.02 1.118-.813.944.171.296.18.136.21-.097.544.577-.327.698.261.027.588.608.327-.156.233-.557.448-.347.144-.491-.105-.511.284-.347.05-.25.328-.109.155-.315-.05-.507.187-.28-.086-.367-.198-.105-.11-.375.187-.464.577-.027.058-.257.136-.066.062.39.176.14-.106.257.063.191 2.35-.023.16.097-1.9 2.3-.166.031 1.113 2.199.214-.043.276-.257.269.471-.526 1.415-.3.059-.077.265-.378.027.218.472.175.023-.323 1.42-.47.53.104.19-.245 1.333.533.195-5.472 11.69.066.43.778 1.138.226.097.237-.05.168.311.53.11.474.65.642.16.285.835 1.167.327.292.83.678 1.255.482.316.471.811.444.199.152.577.404.394.51.292.382.666.845.523.377.592.903.07.77.671.153 2.011.728.094-.257.487-.323.129-.137.241.436.383.074.522-.529.627.179.328-.234.44-.288.036.23.284-.374.604-.272.008-.187.183.004.647-.296.199-1.362-.308-1.627.893-.818-.004-.389.417-.786.203-.04.53-.353-.195-.358.444-.93.145-.55-.18-.774.109-.024.788-.416.207.085.116-.19.675.097.343-.152 1.45-1.942.074v.195l-.494.483-1.079-.382-.155.195.105.441-.849.046-.428-.779.175-.242-.837.012-.16.752-.365.168-.171.421-.3.011-.195-.498-.44-.145.347-.269-.016-.241-.907-.394-.105-.394-1.016.012-.257-.129-.156.063-.21.401-.249-.019-.296.152-1.101-.215-.086.332-.7.039-.577.35-.175.741-.358.421.004.328-1.456 1.286-.393-.593.156-.491-.895-.405-.818.249-.303-.136-.113-.39-.771.253-.366-.557-.97.183-.63-.202.276-.893-.459-.246-.023-.393-.77-.16-1.787-1.029-.257.167-.133.698-.825 1.567-.058 1.216-.896-.39.164.612-.296.273.276.562-.148.471.48.507-.398.865-.194-.588-.631.292-.035 1.072-.677.265-.129.488-.689.128-.891-.358-.027-.234-.362-.164-.526.53-.588-.499-.77.273.097.971-.603.245-.28-.066-.44.499-.23-.129-.709.269-.3-.078-.186.612-.378.343-.46.145-.493 1.329.179.507-1.553.506-.397-.222-1.32.363-.424.35-.02.305.195.222.082.838-.238.795-.642.265-.156.351-.681-.078-.549.175-.405-.627-.65.561-.716.066-.405-.46-.35.059-.039-.538-.307-.121-.41-.682-.965-.405.02-1.072-.541-.519-.603-2.218-.004-.585.447.223.417-.429-.074-.339.65-.655.257.14-.14-.838-.253-.086.007-.374-.295-.191-.627.448-.214.441-.432-.012-.183.565-.993.912-.74.121-.077-.179-.448-.082-.023.3-.48.328-.307-.195-.295.277.167.327-.487.199-.288-.507-.23.183.005.632-.378.682.327.682-.047.222-.763.495-.475-.974.191-1.345-.54-1.025-.25-.234-.144-.869.98-.558-.225-1.029.086-.924-.436-.093-.378-.433-.323.132-.132-.171-.374-.031-.288-.643-.498-.168.241-1.084-.77.753-.055-.168-.23-.097-.268.136-.49-.324-.6-.046.02-.714.486-.475-.062-.371.14-.109-.475-1.212.23-.004-.032-.737.172-.144-.16-.296-.187-.02.218-.471-.689-.215.296-.569-.117-.857-.436-.445.382-.538-.576-.214-.25-.608.098-1.283-.506-.908.12-.628.697-.557-1.027-.593.903-.288-.16-1.52-.915-.11-.81-.713.149-.44-.401-.628-1-.222-.943-1.341-.75.203.007.725.257.822-1.25-1.485.187.713-.32.636-.194 1.048-1.016 1.755-.463.023-.467.386-.813-.721-.27-.09-.688.14-.043 1.478-1.175.14.467.889-1.04.951.195 1.072-.685-.281-.74-1.734-.704-.951-.358-.69-.526-1.447-.895-1.34.05-.363-.287-.32L8.57 92.85l.004-.167-.366-.5-.113-.888-.365-.772-.028-.35-.3-.441-.455-1.809-.35-.627-.354-1.139-.444-2.339-.35-.471-.067-.636-.463-1.267-.047-.428-.68-.944-.067-.495-.296-.413.05-.308-.303-1.084-.662-.557-.291-.452.027-.265-.327-.608-.872-.683-.393-1.165.066-.448-.362-.254-.487-.639L0 72.552l.152-.612.14-.21.794-.11.409-.261.07-.28.222-.215.366-.183.167.02.125.292.272-.024.23-.42.225-.157-.05-.569.42-.366-.595-.8.046-.319.18-.105.26.195.199-.04.03-.342-.205-.27.478-.062-.187-.503.413.129.148-.086-.012-.959.164-.202.553.105.163-.203.311.164.218-.257.608-.191.342.276.156.308.557.273-.078 1.049.233.39.226.167.257-.16.32.04.295-.203.339.21.334.593.004.425.3.44-.05.46-.188.269-.346.023-.214.398.066.28.323.297.09.573.502.016-.175 1.715.778-.28.615.065.21-.148.3.106.12.674.374.164.187.004.362-.273.226.167.218-.19.323.182 1.355.035.782.53.654.776.308-.046.404.25.39.003.171.195.226-.043.136-.172.339.043.17-.195.554.078.303-.09.214.176.541.055.41-.164.404.058.549-.374.68-.163.491.093.576-.156 2.188.27.378.245.241.585.23-.055.327.28.467.172.622-.156.366-.199.343-.405.502-.02v-.245l-.33-.199-.192-.565.242-.745.311-.167.467.101.635-.058.545-.285.342-.433.133-.83.389-.312.183-.526.619-.18.697.04.424-.367.736.23.182-.097.156-.367.32-.28.342.07.611-.226.3.046.035-41.421.685.83.152.008.163.351Z" fill="#FF1462"/><path d="m158.129 51.83.067.179.677.343.444-.316.552.199 1.02.14 4.395.07.716-.117-.105.382-.238.106-.109.374.074.18.269-.593-.327 2.07-1.74 4.817.035.437-.782 3.068-.125.889.051.467-.405 2.448-1.323 2.655.038.476-.264 1.134-.405.624-3.542 3.48-2.491.98-1.293 1.406-.708.994-1.129 1.072-.315.488-.88.896-1.518 2.136-1.312 2.398-.195.62.086.378.167.058-.007.121-1.775 2.074-2.62 5.305-2.308 3.797-.892 1.15-.809 1.434-.316.246-.225-.183-.113-.464-.304-.191.047-.363-.202-.195.097-.304-.074-.23-.249-.253-.265-.023-.132-.5-.417-.038-.136-.195-.28.074-.094-.324-.233-.093.004-.293-.347.133-.264-.14-.148-.184-.483-.222-.144-.39-.347-.027-.147.226-.102-.148-.661-.164-.152-.167-.596.12-.245-.253-.362-.097-.759-.534-.526.234h-.611l-.14.19-.194.036-.693-.343-1.791-.464.027-.616-.774-.382-.214.082-.117.756-.195.027-.903-.183-.416-.632-.463-.074-.195-.436.249-.48-.323-.62.358-.873.872.355.272-.713.468.124.136-.374.385-.241-.14-.359.553-.331.389.042.455-.596-.007-.429-.397-.25-.518-.666.619-.468.241.067.129-.324.412-.109.051-.136-.179-.581-.265-.265.265-1.041-.066-.378.28-.254.058-.37.273-.054.303-.246.553-.097-.004-.453.378-.136-.273-.187.008-.858.284-.125.136-.253.814-.3.378-.975-.238-.276.035-.41-.358-.468-.179-.576-.502-.608.047-.422-.125-.206-.432-.14-.308.132-.33-.366-.082-.312-.549-.222-.269-.254-.587-.195-.082-.425-.452-.304-.284.055-.373-.429-.479-.931-.475-.414.296-.916.346-.292-.004-.448.409-.456 1.031-.336.627.078.199-.198.389.007.082-.152-.105-.428.377-.492.744-.195.424-.522.716-.327.818-1.069 1.019-.16.238-.607.459-.332.035-.666-.424-.449-.058-.327.124-.413.311-.32-.015-.674.584-1.127-.214-.41.054-.697-.249-.472v-.21l.989-.737-.14-.565-.538-.238.106-.386-.125-.113.599-.269.308.145.471-.909.829-.269.323.203.522.074.428-.288.922.276.32-.386.443-.12.557-.464.471-.137.331.031.253-.296.381.078.067.37.167.063.611-.082.767.148.599-.429.479-.047.518.188.272.276.242-.039.455.324.378-.32.482-.09.09.367.315.226.993-.238.225.082.277-.074.463.37.288.024 1.102-1.423 2.141.803 4.78.016.077-2.893.312-2.826.872-.05.12.12ZM100.462 27.513l-.047 1.185.374.752 1.533.215.573-.102.692.523.584.039.179-.293 1.581-.577.163-.23.339.008.05-.561.417-.012.23 1.875.728.277.307.589-.008.276 1.363.063.615.768 1.284-.148.214.471.312.11.51-.687-.032-.631.335-.21h.475l.413.409.44-.265.685.085.058-.627.732.171.089.331-.288.004.016.226.424.047.136-.241.316-.067.331.207.907.066 1.459.74-.175.726-.498.027-.495-.37-.385.09-.101.522.553.093.054.566.919-.102.735 1.213v1.075l-.813.254-.537-.035-.21.214-.222.004-.094-.335.269-.09-.004-.156-.319-.054-.448.179.343 1.5-.452.324-.132.406-.296.195-.81.124.452 1.143-.292.105.159.588-.264.168-.004.238-.463-.05v.217l-.802.106-.857.284-.038-.444-.518.276-.343-.475-.116-.456-1.76.955.023.772-.482 2.011-.584.086-.031.425-.67-.078.355 1.544-.802.534-.604.573.428.79.004.527 1.336-.514-.094-.289 1.417-.316.183.148.121.336.965-.035-.144.464-.101.027-.199.943-.233.055.35.44-.292 1.618-.237.039-.004.53-.421.663-.323.074-.253.292-.132.012-.857-.78-.33.21-.771 1.014-.273.11-.109-.043.078-.293-.144-.167-.194.12-.495-.09-.607.094-.677-.253-.253-.452-.14-.012-.152.16.047.713-.094.152-.564-.526-.37.343-.222-.136-.572.3-.366.335-.101.359-.121.027-.152-.238-.436.098-.416.448-.02.608-.564-.07-.3.475-.136-.023-.237.234-.355-.035-.124.113.128.398.677.728.004.585-.319.121-.113.34.678.416-.183.059-.502-.117-.281.113-.662-.105-.276.37-.292-.144-.35.109-.366.507.012.413-.3.082-1.176 1.138-.311.643.19.359-.038.187-.362.093-.144-.09-.222-.892-.732-.199-.603.031-.39-.471-.249.035-1.257.717-.202.347-.783-.152-.366.34-.432-.036-.844.34-.58.444-.172.3-.759.187-.288.401.121.195-.101.218-.658.6-.448.075-.334.53.081.312-.264.284-.094.3-.848.23-.277.258-.214.043-1.113-2.199.167-.031 1.904-2.3-.16-.097-2.35.023-.063-.19.109-.254-.175-.145-.063-.386-.136.067-.058.253-.58.027-.187.464.113.375.198.105.086.366-.187.28.05.508-.159.315-.327.11-.05.249-.285.347.11.514-.145.492-.447.343-.234.557-.327.156-.588-.608-.26-.027.327-.698-.545-.577-.21.101-.18-.136-.17-.3.813-.94.02-1.118-.23-.398-3.13.717-.339-.331.257-1.174-.619-.218.074-1.863.296-.842-.751-.507-.226.429.187.784-.37.007-.525-.206-.335.573.366.07.043.183-.35.261-.783-.163-.432.744-.113.008-1.028-.437-.46-.444-1.256-.008.144-.374-.347-.378-.381.148-.716-.659-.386-.132-.864-.047-.751-1.053-.378-.23-.113-.35-.661.183-.355-.66-.054-.455.136-1.033.436-.04.308-.182-.433-.527-.038-.545-.288-.589.046-.448.355-.215-.347-.518.409-.92-.288-.101-.518-.48-.113-.015-.144.241-.14-.386-.163-.093-.573.031-.167-.355-.985.066-.362-.03-.086-.118-.16-1.345.118-.292.128-.043-.082-3.344-.622-.035.062-.2.319-.214.02-.6.529-.031.05-.85.199-.238-.315-.245.03-.137.2-.066.011-.265.378-.23.066-.168-.425-.276.191-.152.148-.566.261-.101.218-.32.066-.347-.206-.124.011-.207.425-.234-.358-.331.447-.877-.136-.18.234-.128.303.086-.128-.188.23-.565.587-.417.078-.468.304-.101.03-.402.215.168.303-.206-.085.304.222.124.179-.237.202-.07.21.112.643-.428.412.058.401-.093.168.21.183-.105.097.105.346-.066.125.18.47.124.27-.394.217.004-.074.195.425.335-.012.304.323-.109.611.596.218-.132.086.14-.082.098.183.109.078.218.202-.058.04-.137.128.34.335.128.155-.125.304.265.124.386.557.168-.136.156.046.136.226.012.097.288.343.078.304.527.292.113.338-.226.39.078.019.311.494.032.055-.273.704.023.222-.222.012.206.346-.093.705.885.237-.016-.07.246.444-.082.012.23.517.331.514-.152.203-.171 2.098.94.354.046.46-.175.645.198.604-.171.467.035.148-.257.354-.273.37-.113.237-.328.354-.054.763.405 2.22.11 2.494-1.618.604-1.314-.016-.382.463-1.19.129-.919.319-.378 1.245-3.481.215-.214.066-.66-.257-.553.03-.557.297-.012.362-.363.93-.03 3.811-.905ZM71.813 135.53l-.487.3-.704.023-.354.16-.425.335.035.643-.105.082-.946-.058-.467-.164-1.713-.019-.54-.168-.433.211-.447-.293-1.168-.374-.292-.078-.105.074-1.787-.452h-.194l-.798.686-.195-.035-.249.132-1.218-.113-.841.078-.79.324-.362.394-.125.569.51.3-.486.206-1.028.055-.818.437-.198.421.039.144.319.121-.393.214-.035.168.12.089-.28.063-.19.234-.569.214-1.19.171-1.605-.475-.93.14-.202.117.062.195-.148-.015-.214.249-.91.343-1.776-.717-1.292-.211-.97.09-.521.312-.023.152.206.339-.059.273-.186.179-1.865-.316-1.3.254-.553.234-.517.448-.273.569-.568.238-.167.234-.88.479-.098.452-.67.102-.828.464-.335.436.004.339.163.094-.07.101-.295.024-.168.222-.237.031-.347-.238-.214.008-.085-.207-.518-.397-1.865-.051-.175.168.047.078-.393.109-.105-.105.136-.094-.09-.249-.237.042-.117-.335-.494-.222-.234-.483-.782-.226-.148-.386-.226-.199-1.222.316.136-.234.253-.067.253-.623.25-.183-.246-.8-.463-.662.148-.113.28.175.105-.14.261-.039-.055-.055-.669-.011-.195.097-.245-.09-.518.367-.35-.191-.634-.067-.078-.14.116-.117-.272-.355.315-.183-.07-.058.152-.343-.206.066-.269.296.055.203-.596-.312-.428.062-.28.219-.569-.082-.144.218-.346-.05-.004.218-.237-.144-.117.136-.183-.491.214-.113-.187-.507.39-.386.046-.183-.381-.752.506-.386-.553-.694-.452-.246-.564-.101-1.02.035-1.183.292-.569.414-.132.651.315.155.222.503-.175.936.125.284.257.215-.242.012-.21-.266-.37-.179-.377-.733-.098-.818-.194-.226-.156.011-.175-.358.346-.3-.03-.39.186-.343-.054-.137-.137-.066-.105.187-.327-.285.242-.179.163-.452.241-.164-.015-.413.292-.487.315-.008.105.261.327-.152.16-.366-.024-.433-.393-.803-.09-.994-.408-.811-.218-.07-.183-.472-.506-.179.078-.686-.296-.635-.483-.534-.934-.694.152-.156-.016-.187-.626-1.17-.896-.959-.397-.152.035-.195-.225-.183.066-.14.124.043.098-.382.16.043.19.308-.012.304.18.081-.07.195.284.129.393.561.179.012.16-.16-.012-.093-.125.105-.28-.207.078-.339-.612-.499.125-.639-.128-.3-.39-.336-.183-.011-.268.136-.078.382-.25.129-.213-.086.093-.331-.315-.289.117-.187.008-.195-.106-.027.125-.082-.004-.175-.074-.195-.187-.082.238-.585-.39-.46.608-.319-.074-.671.241-.203.004-.148.308.102.151-.273.18.039-.036.292.401.172-.05.109.416.405.744-.082 1.198-1.196.58-1.1.207-.67.093-.842-.218-1.688.238-.027.085-.406-.444-1.945-.035-.273.16-.117.004-.152-.498-1.567.148-.503-.44-.877-.113-.861-.958-1.517-.147-.467-2.196-2.737-.218-.354.016-.48-.144-.238-.72-.713-.41-.628.686.281-.195-1.072 1.04-.951-.467-.889 1.175-.14.043-1.478.689-.14.268.09.814.72.463-.381.463-.023 1.016-1.755.195-1.048.32-.636-.188-.713 1.25 1.485-.257-.822-.008-.725.751-.203.942 1.341 1 .222.402.628-.148.44.81.714.914.109.16 1.52-.903.288 1.027.593-.697.557-.12.628.51.908-.098 1.283.25.608.576.214-.382.538.436.444.117.858-.296.569.689.215-.218.471.187.02.16.296-.172.144.031.737-.23.004.476 1.212-.14.109.062.371-.487.475-.02.714.6.046.49.324.27-.137.229.098.054.167.771-.752-.241 1.084.498.167.288.644.374.031.132.171.323-.132.378.433.416.089-.085.924.225 1.029-.98.558.143.869.25.234.54 1.025-.19 1.345.475.974.763-.495.046-.222-.327-.682.378-.682-.004-.632.23-.183.288.507.486-.199-.167-.327.296-.277.307.195.48-.328.023-.3.447.082.078.179.74-.121.992-.912.183-.565.432.012.214-.441.627-.448.296.191-.008.374.253.086.14.838-.257-.14-.65.655.074.339-.416.428-.448-.222.004.585.603 2.218.541.518-.02 1.072.966.406.409.682.307.121.04.538.35-.059.404.46.717-.066.65-.561.404.627.55-.175.68.078.156-.351.642-.265.238-.795-.086-.838-.194-.223.02-.304.423-.35 1.32-.363.397.222 1.553-.507-.179-.506.494-1.33.46-.144.377-.343.187-.612.3.078.708-.269.23.129.44-.499.28.066.603-.245-.097-.971.77-.273.589.499.525-.53.362.164.027.233.892.359.689-.129.128-.487.678-.265.035-1.072.63-.292.195.588.397-.865-.479-.507.148-.471-.276-.562.295-.273-.163-.612.895.39.059-1.216.825-1.567.132-.698.257-.167 1.787 1.029.77.16.024.393.46.246-.277.892.63.203.97-.183.365.557.771-.253.113.39.304.136.817-.249.895.405-.155.491.393.593 1.456-1.287-.004-.327.358-.421.175-.741.576-.35.7-.039.086-.332 1.102.215.296-.152.249.019.21-.401.156-.063.257.129 1.016-.012.105.394.907.394.015.241-.346.269.44.144.194.499.3-.011.171-.421.366-.168.16-.752.837-.012-.175.242.428.779.848-.046.195.339-.214.008.054.335-.249-.031-.284.69.549-.098.405.308-.098.129.226.183-.448.67-.428-.101-.175.269.21.117.008.288-.393.032.035.436.308.027-.004.379-.456.37-.486-.066.046.292-1.564.85-.46-.086-.175-.413-.592-.328-.163.223-.825.475-.226.636.269.3-.121.234-2.157-.063-.428.604-.658-.292-.132.296-1.05.542.236.433-.07.581.436.292.261 1.158-.175.199-.28.081.74.507.124.659.366.195-.07.694-1.032-.324-.84-.121-.553.624-.627-.846.3 1.068-.136.219-.76-.024-.105.285-.548.514.132.538-.354.324.284.323-.078.605-.564.549-.374.928-.195.09-.619 1.146-.366.062.028.612.194.347 1.491.156 1.437-.374.167.156.619-.133 1.77.058.316.503 1.58.032.098.222.86.432.082.913.728.643-.055.464-.817.085-.284-.183-.226.386-1.07.406-.016.421-.452.397.997.191.288-.257.479.07.035.561 1.432.538-.6.795.121.538-.708-.046Z" fill="#FF1462"/></svg>