<svg width="406" height="115" fill="none" xmlns="http://www.w3.org/2000/svg"><path d="M4.856 18.937a22.025 22.025 0 0 1-2.638-4.2c-.684-1.482-1.096-2.822-1.234-4.021l5.275-1.381a14.51 14.51 0 0 0 .956 3.39c.489 1.143 1.076 2.146 1.762 3.008.59.741 1.08 1.217 1.468 1.426.404.198.75.182 1.038-.047.332-.265.414-.675.243-1.231-.159-.541-.519-1.366-1.08-2.476-.718-1.43-1.258-2.668-1.62-3.714a6.865 6.865 0 0 1-.245-3.288c.2-1.147.874-2.178 2.024-3.093a6.02 6.02 0 0 1 3.391-1.327c1.263-.09 2.568.23 3.915.962 1.36.747 2.672 1.914 3.935 3.503a18.042 18.042 0 0 1 2.183 3.489c.616 1.24 1.015 2.44 1.2 3.604l-5.163 1.476c-.453-2.185-1.233-3.973-2.34-5.365-1.096-1.377-1.977-1.8-2.642-1.27-.318.252-.398.649-.239 1.19.174.529.543 1.335 1.107 2.417.736 1.39 1.284 2.623 1.643 3.696.375 1.06.47 2.158.286 3.293-.172 1.15-.833 2.182-1.983 3.097a6.02 6.02 0 0 1-3.392 1.327c-1.247.078-2.558-.25-3.933-.985-1.347-.731-2.653-1.891-3.917-3.48Z" fill="url('#paint0_linear_349_739')"/><path d="m30.466 24.997-4.141-4.266 3.808-3.696L43.18 30.477l-3.808 3.697-4.14-4.266L24.475 40.35l-4.767-4.911 10.758-10.443Z" fill="url('#paint1_linear_349_739')"/><path d="m43.816 51.18-1.422-1.192-3.28 3.911-5.244-4.397 13.043-15.556 7.489 6.279c1.437 1.205 2.49 2.491 3.16 3.86.668 1.368.92 2.739.752 4.112-.168 1.374-.748 2.653-1.742 3.838-.932 1.111-1.997 1.87-3.196 2.278-1.2.407-2.478.458-3.837.152l-.757 7.539-5.6-4.695.634-6.129Zm7.467-3.58c.484-.577.68-1.17.584-1.78-.082-.624-.479-1.234-1.19-1.83l-1.91-1.602-3.056 3.644 1.91 1.602c.712.597 1.376.888 1.992.875.629-.028 1.185-.33 1.67-.908Z" fill="url('#paint2_linear_349_739')"/><path d="M62.982 72.52c-2.591-1.724-4.145-3.769-4.662-6.133-.517-2.364.066-4.81 1.747-7.337l6.185-9.295 5.698 3.791-6.073 9.127c-.824 1.24-1.207 2.285-1.147 3.138.076.863.532 1.573 1.37 2.13.836.557 1.66.698 2.469.424.825-.263 1.65-1.015 2.475-2.254l6.073-9.127 5.601 3.728-6.185 9.295c-1.682 2.527-3.713 4.009-6.093 4.445-2.38.436-4.866-.208-7.458-1.932Z" fill="url('#paint3_linear_349_739')"/><path d="M88.182 87.282c-1.907-.984-3.42-2.266-4.542-3.846-1.112-1.597-1.738-3.334-1.878-5.212-.114-1.887.299-3.74 1.239-5.562.94-1.82 2.208-3.222 3.803-4.205 1.62-.99 3.4-1.486 5.337-1.487 1.945-.019 3.872.465 5.779 1.449 1.752.905 3.156 2.02 4.211 3.349a9.794 9.794 0 0 1 2.018 4.436l-5.609 1.445c-.39-1.985-1.34-3.368-2.852-4.148-1.271-.657-2.506-.772-3.705-.347-1.19.409-2.14 1.3-2.849 2.675-.71 1.374-.89 2.673-.543 3.897.356 1.206 1.17 2.137 2.441 2.794 1.512.78 3.19.754 5.034-.078l2.07 5.41a9.797 9.797 0 0 1-4.785.923c-1.694-.09-3.416-.589-5.169-1.493Z" fill="url('#paint4_linear_349_739')"/><path d="m113.194 81.793-5.534-2.172 1.938-4.94 17.439 6.844-1.938 4.94-5.534-2.172-5.478 13.956-6.371-2.5 5.478-13.956Z" fill="url('#paint5_linear_349_739')"/><path d="M135.668 105.751c-3-.829-5.115-2.285-6.344-4.37-1.23-2.084-1.441-4.59-.633-7.515l2.972-10.763 6.597 1.822-2.918 10.567c-.396 1.435-.432 2.548-.109 3.339.341.796.997 1.328 1.966 1.596.969.267 1.795.145 2.478-.369.702-.508 1.251-1.48 1.648-2.914l2.918-10.567 6.485 1.791-2.972 10.762c-.808 2.926-2.275 4.968-4.4 6.126-2.125 1.158-4.687 1.323-7.688.495Z" fill="url('#paint6_linear_349_739')"/><path d="m163.324 106.12-1.833-.294-.807 5.04-6.758-1.083 3.211-20.044 9.65 1.546c1.852.296 3.416.86 4.693 1.691 1.276.831 2.195 1.88 2.756 3.144.561 1.264.719 2.66.475 4.188-.23 1.431-.755 2.63-1.575 3.595-.82.965-1.892 1.665-3.214 2.099l3.218 6.859-7.216-1.156-2.6-5.585Zm4.571-6.904c.12-.745-.018-1.354-.412-1.828-.39-.494-1.044-.814-1.96-.96l-2.463-.395-.752 4.696 2.462.395c.917.146 1.636.056 2.158-.272.526-.346.848-.892.967-1.636Z" fill="url('#paint7_linear_349_739')"/><path d="m195.031 110.794-7.706-.357-1.525 3.471-6.952-.321 9.803-19.868 6.721.31 7.926 20.689-7.069-.327-1.198-3.597Zm-1.655-5.012-1.734-5.19-2.206 5.008 3.94.182Z" fill="url('#paint8_linear_349_739')"/><path d="m243.627 90.864-5.993 21.21-6.676.837-11.041-19.076 7.308-.915 6.281 11.166 3.445-12.385 6.676-.837Z" fill="url('#paint9_linear_349_739')"/><path d="m248.329 89.704 6.689-1.448 4.294 19.841-6.689 1.447-4.294-19.84Z" fill="url('#paint10_linear_349_739')"/><path d="m275.342 98.518-1.773.548 1.506 4.876-6.539 2.02-5.991-19.395 9.337-2.885c1.792-.553 3.444-.74 4.957-.56 1.513.18 2.8.714 3.863 1.6 1.063.885 1.822 2.067 2.279 3.545.428 1.385.488 2.692.179 3.92-.308 1.23-.96 2.33-1.954 3.306l5.922 4.726-6.982 2.157-4.804-3.858Zm1.044-8.214c-.222-.72-.615-1.206-1.178-1.457-.569-.27-1.297-.267-2.183.007l-2.383.736 1.403 4.544 2.383-.736c.887-.274 1.492-.674 1.815-1.198.318-.544.366-1.176.143-1.896Z" fill="url('#paint11_linear_349_739')"/><path d="M303.667 93.996c-2.855 1.242-5.415 1.438-7.682.59-2.266-.85-4.005-2.665-5.215-5.449l-4.452-10.239 6.276-2.729 4.371 10.053c.594 1.365 1.265 2.254 2.014 2.666.766.405 1.61.407 2.532.006.922-.401 1.487-1.016 1.696-1.845.227-.836.043-1.937-.551-3.302l-4.371-10.053 6.17-2.683 4.452 10.239c1.211 2.784 1.354 5.293.429 7.53-.925 2.236-2.815 3.975-5.669 5.216Z" fill="url('#paint12_linear_349_739')"/><path d="M327.182 82.298a22.029 22.029 0 0 1-4.558 1.957c-1.57.447-2.957.646-4.163.598l-.549-5.426c1.118.01 2.284-.13 3.498-.42 1.204-.306 2.286-.732 3.244-1.276.823-.468 1.369-.878 1.636-1.23.257-.369.295-.713.114-1.032-.211-.37-.603-.513-1.179-.431-.559.073-1.43.301-2.613.684-1.524.488-2.831.83-3.92 1.027a6.866 6.866 0 0 1-3.287-.267c-1.102-.374-2.016-1.2-2.742-2.478a6.017 6.017 0 0 1-.787-3.555c.107-1.261.625-2.501 1.556-3.72.948-1.227 2.304-2.343 4.069-3.346a18.054 18.054 0 0 1 3.784-1.617c1.32-.416 2.569-.625 3.746-.627l.66 5.328c-2.228.11-4.115.605-5.661 1.483-1.53.87-2.085 1.674-1.664 2.413.2.353.58.493 1.139.42.549-.09 1.402-.33 2.559-.72 1.488-.512 2.79-.863 3.905-1.052a6.574 6.574 0 0 1 3.298.228c1.11.347 2.027 1.16 2.753 2.438a6.017 6.017 0 0 1 .787 3.555c-.116 1.245-.643 2.49-1.581 3.734-.931 1.218-2.279 2.329-4.044 3.332Z" fill="url('#paint13_linear_349_739')"/><path d="M350.406 67.468c-2.527 1.817-4.988 2.55-7.383 2.2-2.395-.35-4.478-1.756-6.25-4.22l-6.517-9.066 5.557-3.995 6.399 8.9c.869 1.209 1.713 1.936 2.532 2.18.834.234 1.66.057 2.476-.53.816-.587 1.239-1.307 1.267-2.161.045-.866-.367-1.903-1.236-3.112l-6.399-8.9 5.463-3.927 6.517 9.065c1.772 2.464 2.442 4.887 2.011 7.269-.431 2.381-1.91 4.48-4.437 6.297Z" fill="url('#paint14_linear_349_739')"/><path d="m351.458 40.565 5.119-4.543 9.952 11.213 6.854-6.083 3.523 3.97-11.973 10.625-13.475-15.182Z" fill="url('#paint15_linear_349_739')"/><path d="M389.108 33.156c-2.104 2.294-4.364 3.513-6.78 3.658-2.415.145-4.742-.809-6.978-2.86l-8.227-7.549 4.627-5.043 8.077 7.411c1.097 1.007 2.071 1.546 2.923 1.619.864.059 1.636-.283 2.316-1.023.68-.741.947-1.533.801-2.375-.133-.856-.748-1.787-1.844-2.794l-8.078-7.41 4.548-4.958 8.228 7.548c2.236 2.052 3.386 4.288 3.449 6.707.063 2.419-.957 4.775-3.062 7.069Z" fill="url('#paint16_linear_349_739')"/><path d="m384.739 6.366 4.163-5.432 16.112 12.348-4.163 5.432-16.112-12.348Z" fill="url('#paint17_linear_349_739')"/><defs><linearGradient id="paint0_linear_349_739" x1="45.772" y1="16.43" x2="89.358" y2="137.614" gradientUnits="userSpaceOnUse"><stop stop-color="#44107A"/><stop offset="1" stop-color="#8327E3"/></linearGradient><linearGradient id="paint1_linear_349_739" x1="45.772" y1="16.43" x2="89.358" y2="137.614" gradientUnits="userSpaceOnUse"><stop stop-color="#44107A"/><stop offset="1" stop-color="#8327E3"/></linearGradient><linearGradient id="paint2_linear_349_739" x1="45.772" y1="16.43" x2="89.358" y2="137.614" gradientUnits="userSpaceOnUse"><stop stop-color="#44107A"/><stop offset="1" stop-color="#8327E3"/></linearGradient><linearGradient id="paint3_linear_349_739" x1="45.772" y1="16.43" x2="89.358" y2="137.614" gradientUnits="userSpaceOnUse"><stop stop-color="#44107A"/><stop offset="1" stop-color="#8327E3"/></linearGradient><linearGradient id="paint4_linear_349_739" x1="45.772" y1="16.43" x2="89.358" y2="137.614" gradientUnits="userSpaceOnUse"><stop stop-color="#44107A"/><stop offset="1" stop-color="#8327E3"/></linearGradient><linearGradient id="paint5_linear_349_739" x1="45.772" y1="16.43" x2="89.358" y2="137.614" gradientUnits="userSpaceOnUse"><stop stop-color="#44107A"/><stop offset="1" stop-color="#8327E3"/></linearGradient><linearGradient id="paint6_linear_349_739" x1="45.772" y1="16.43" x2="89.358" y2="137.614" gradientUnits="userSpaceOnUse"><stop stop-color="#44107A"/><stop offset="1" stop-color="#8327E3"/></linearGradient><linearGradient id="paint7_linear_349_739" x1="45.772" y1="16.43" x2="89.358" y2="137.614" gradientUnits="userSpaceOnUse"><stop stop-color="#44107A"/><stop offset="1" stop-color="#8327E3"/></linearGradient><linearGradient id="paint8_linear_349_739" x1="45.772" y1="16.43" x2="89.358" y2="137.614" gradientUnits="userSpaceOnUse"><stop stop-color="#44107A"/><stop offset="1" stop-color="#8327E3"/></linearGradient><linearGradient id="paint9_linear_349_739" x1="45.772" y1="16.43" x2="89.358" y2="137.614" gradientUnits="userSpaceOnUse"><stop stop-color="#44107A"/><stop offset="1" stop-color="#8327E3"/></linearGradient><linearGradient id="paint10_linear_349_739" x1="45.772" y1="16.43" x2="89.358" y2="137.614" gradientUnits="userSpaceOnUse"><stop stop-color="#44107A"/><stop offset="1" stop-color="#8327E3"/></linearGradient><linearGradient id="paint11_linear_349_739" x1="45.772" y1="16.43" x2="89.358" y2="137.614" gradientUnits="userSpaceOnUse"><stop stop-color="#44107A"/><stop offset="1" stop-color="#8327E3"/></linearGradient><linearGradient id="paint12_linear_349_739" x1="45.772" y1="16.43" x2="89.358" y2="137.614" gradientUnits="userSpaceOnUse"><stop stop-color="#44107A"/><stop offset="1" stop-color="#8327E3"/></linearGradient><linearGradient id="paint13_linear_349_739" x1="45.772" y1="16.43" x2="89.358" y2="137.614" gradientUnits="userSpaceOnUse"><stop stop-color="#44107A"/><stop offset="1" stop-color="#8327E3"/></linearGradient><linearGradient id="paint14_linear_349_739" x1="45.772" y1="16.43" x2="89.358" y2="137.614" gradientUnits="userSpaceOnUse"><stop stop-color="#44107A"/><stop offset="1" stop-color="#8327E3"/></linearGradient><linearGradient id="paint15_linear_349_739" x1="45.772" y1="16.43" x2="89.358" y2="137.614" gradientUnits="userSpaceOnUse"><stop stop-color="#44107A"/><stop offset="1" stop-color="#8327E3"/></linearGradient><linearGradient id="paint16_linear_349_739" x1="45.772" y1="16.43" x2="89.358" y2="137.614" gradientUnits="userSpaceOnUse"><stop stop-color="#44107A"/><stop offset="1" stop-color="#8327E3"/></linearGradient><linearGradient id="paint17_linear_349_739" x1="45.772" y1="16.43" x2="89.358" y2="137.614" gradientUnits="userSpaceOnUse"><stop stop-color="#44107A"/><stop offset="1" stop-color="#8327E3"/></linearGradient></defs></svg>