<svg width="324" height="24" viewBox="0 0 324 24" fill="none" xmlns="http://www.w3.org/2000/svg">
<path d="M10 12V10.5H9.97536L9.95073 10.5008L10 12ZM323.061 13.0607C323.646 12.4749 323.646 11.5251 323.061 10.9393L313.515 1.3934C312.929 0.807612 311.979 0.807612 311.393 1.3934C310.808 1.97918 310.808 2.92893 311.393 3.51472L319.879 12L311.393 20.4853C310.808 21.0711 310.808 22.0208 311.393 22.6066C311.979 23.1924 312.929 23.1924 313.515 22.6066L323.061 13.0607ZM0.90507 11.2377C0.338843 11.8424 0.370041 12.7916 0.974755 13.3579L10.8291 22.5851C11.4338 23.1513 12.3831 23.1201 12.9493 22.5154C13.5155 21.9107 13.4843 20.9614 12.8796 20.3952L4.12018 12.1933L12.3221 3.43381C12.8884 2.8291 12.8572 1.87987 12.2525 1.31364C11.6477 0.747411 10.6985 0.77861 10.1323 1.38332L0.90507 11.2377ZM10 13.5H322V10.5H10V13.5ZM9.95073 10.5008L1.95073 10.7637L2.04927 13.7621L10.0493 13.4992L9.95073 10.5008Z" fill="#44107A"/>
</svg>
