<svg width="166" height="146" viewBox="0 0 166 146" fill="none" xmlns="http://www.w3.org/2000/svg">
<path d="M110.497 91.9801L110.594 91.828L110.427 91.7189L110.493 91.5669L110.275 91.4343V90.8535L110.691 90.0427L110.555 89.9374L109.878 90.0349L109.644 89.0838L108.901 88.3509L107.737 85.4507L106.783 84.1838L106.822 83.7862L107.169 84.0123L107.281 83.6069L107.425 83.7394L107.694 83.603L107.819 83.3028L108.134 83.1391L108.589 83.2093L108.85 82.9559L109.037 83.0534L109.274 82.7961L109.671 82.7883L109.683 82.4024L110.224 82.2153L110.232 81.9775L110.606 81.4824L110.839 81.4084L110.676 80.9601L110.987 80.9406L111.034 80.5274L111.322 80.3091L111.17 80.0713L111.555 80.0401L112.007 79.6503L112.03 79.4944L111.863 79.3891L111.836 79.2215L112.462 78.6212L112.75 78.551L112.723 78.2236L113.155 77.9702L113.186 77.7168L113.035 77.6194L113.385 77.5765L113.05 77.2296L113.365 77.2257L113.385 77.0425L113.541 76.9333L113.482 76.7462L113.864 76.7267L113.755 76.602L113.883 76.4422L113.86 76.2083L113.992 76.0446L114.195 76.0484L114.304 75.8302L114.14 75.5495L114.654 75.7639L114.837 75.7366L114.934 75.5729L115.483 75.7405L115.635 75.6353L115.58 75.3819L115.748 75.3429L116.005 75.0193L116.273 75.0817L116.406 75.3273L116.962 75.3117L116.935 75.0895L117.172 74.9336L117.196 74.5828L117.429 74.5165L117.818 73.7758L118.507 73.1716L118.694 73.3432L119.091 73.2106L119.562 73.3666L119.8 73.2418L120.259 73.2535L120.364 73.1794L120.353 72.8832L120.773 72.3491L121.31 72.1698L122.528 72.162L123.198 71.8112L123.661 72.1308L123.864 73.0196L124.743 73.3003L124.965 73.9435L125.37 73.9552L125.845 74.3723L126.324 75.3L126.693 75.7327L126.981 75.6781L127.433 75.9783L127.515 76.4032L128.106 76.5981L128.375 76.8515L128.924 77.0737L129.006 77.3855L129.336 77.748L129.644 77.6155L130.08 77.7558L130.204 77.9624L130.158 78.3834L130.66 78.9915L130.839 79.5685L131.197 80.0362L131.162 80.4455L131.396 80.7223L131.022 81.6968L130.208 81.9931L130.072 82.2504L129.784 82.3751L129.776 83.2327L130.049 83.4198L129.671 83.5562L129.675 84.0084L129.122 84.1059L128.823 84.3514L128.546 84.4099L128.492 84.7802L128.211 85.0297L128.278 85.4078L128.013 86.4486L128.278 86.7137L128.461 87.2945L128.41 87.4349L127.994 87.544L127.865 87.8636L127.624 87.7974L127.005 88.2652L125.164 89.3878L124.541 89.5905L124.152 89.5788L123.505 89.8946L122.914 89.879L122.205 89.6607L121.855 89.9686L121.458 90.0934L120.808 89.9296L120.625 89.9959L120.356 90.2337L120.251 90.6547L119.788 91.2355L119.052 91.3603L118.838 91.6409L119.247 92.0697L119.418 92.4985L119.021 93.0793L118.601 93.2586L118.153 93.6445L118.469 94.0461L118.309 94.3111L118.231 94.8062L117.76 95.274L117.787 96.0926L117.511 95.8665L117.083 95.9873L115.853 95.7612L115.557 95.2584L115.246 95.4143L114.07 95.2194L113.424 94.3462L112.754 93.9135L112.676 93.5237L112.416 93.4496L112.139 92.7753L111.618 92.6233L111.361 92.2646L111.295 91.906L110.578 92.1516L110.477 92.136L110.497 91.9801Z" fill="#FF1462"/>
<path d="M127.005 88.2652L127.523 88.9317L127.92 89.1812L127.927 89.61L127.472 90.2064L127.083 90.1635L126.53 90.4949L126.67 90.8535L126.285 91.0952L126.148 91.4694L125.681 91.3446L125.409 92.058L124.537 91.7033L124.179 92.5765L124.502 93.1963L124.253 93.6757L124.447 94.1123L124.911 94.1864L125.327 94.8179L126.23 95.0011L126.425 94.9738L126.542 94.2176L126.756 94.1357L127.53 94.5177L127.503 95.1336L129.294 95.5975L129.986 95.9405L130.181 95.9054L130.321 95.7144H130.932L131.458 95.4806L132.217 96.0146L132.579 96.112L132.824 96.3654L133.42 96.2446L133.571 96.4122L134.233 96.5759L134.334 96.7241L134.482 96.498L134.829 96.5252L134.973 96.9151L135.455 97.1373L135.603 97.3205L135.868 97.4608L136.215 97.3282L136.211 97.6206L136.444 97.7142L136.538 98.0377L136.818 97.9636L136.954 98.1586L137.371 98.1975L137.503 98.6965L137.768 98.7199L138.017 98.9733L138.091 99.2033L137.993 99.5073L138.196 99.7022L138.149 100.065L138.453 100.256L138.566 100.72L138.791 100.903L137.188 103.097L135.424 104.875L135.152 105.07L134.35 105.265L133.992 105.623L133.595 106.274L133.116 106.602L133.042 106.816L132.279 107.327L132.201 107.553L131.684 107.888L130.983 108.134L130.683 108.664L130.306 108.949L130.247 109.448L129.971 109.522L129.333 110.43L129.177 110.469L128.893 111.096L128.574 111.245L128.087 111.728L128.013 112.016L127.581 112.562L127.604 112.734L126.849 113.307L126.686 113.685L126.16 114.207L126.106 114.406L124.837 115.595L124.841 115.692L124.447 115.922L124.117 116.495L123.233 117.236L123.12 117.528L122.684 117.743L122.688 117.903L122.194 118.343L122.19 118.592L121.913 118.709L121.75 118.982L120.979 119.294L120.925 119.473L120.38 120L120.376 120.183L120.088 120.199L119.298 120.842L118.118 121.321L117.78 121.695L117.698 122.21L117.39 122.588L117.433 122.67L116.25 123.414L116.047 123.746L115.864 123.796L115.646 124.221L114.405 124.97L113.875 125.145L113.576 125.558L113.202 125.773L112.669 126.311L111.843 126.779L110.656 127.808L108.936 128.911L108.659 129.269L108.185 129.402L107.643 130.026L107.017 130.209L106.565 130.603L105.865 130.72L105.133 131.296L103.879 131.589L101.918 132.778L101.112 133.043L100.244 132.875L99.4069 132.934L98.2859 132.474L97.1259 132.236L95.8336 132.271L94.7632 132.462L94.1871 132.715L93.3541 133.292L93.0037 133.639L92.6807 134.208L92.4822 135.167L93.0816 135.604L93.358 136.146L92.9765 136.115L92.6807 136.364L92.1318 136.399L91.0147 136.15L90.3958 136.208L89.372 135.713L88.4923 135.44L87.5932 135.35L86.6084 135.44L85.9778 135.655L85.5963 135.947L85.4912 136.781L84.9229 137.3L84.6037 137.845L84.9774 138.173L84.6932 138.177L84.6037 138.442L83.6111 138.064L83.2219 138.13L82.6808 137.884L82.4044 137.935L82.3383 138.13L81.2756 137.884L80.9798 137.775L80.0417 137.058L79.3332 137.038L77.6984 136.446L74.1445 135.939L72.5486 135.58L72.4279 135.043L73.0274 134.247L71.5949 133.709L71.5599 133.148L71.0811 133.078L70.7931 133.335L69.7966 133.144L70.2481 132.747L70.2637 132.326L71.3341 131.92L71.5599 131.534L71.8441 131.717L72.6615 131.632L72.716 131.168L71.9881 130.525L71.9063 129.612L71.0461 129.18L70.9488 128.958L69.3684 128.926L69.0531 128.424L67.282 128.365L66.6631 128.498L66.4958 128.342L65.0594 128.716L63.5686 128.56L63.374 128.213L63.3467 127.601L63.7126 127.539L64.3315 126.393L64.5261 126.303L64.8998 125.375L65.4642 124.826L65.5421 124.221L65.2579 123.898L65.6122 123.574L65.4798 123.036L66.0286 122.522L66.1338 122.237L66.8928 122.261L67.029 122.042L66.7293 120.974L67.356 121.82L67.9087 121.196L68.7495 121.317L69.781 121.641L69.8511 120.947L69.4852 120.752L69.3606 120.093L68.6211 119.587L68.9013 119.505L69.0765 119.306L68.8157 118.148L68.3797 117.856L68.4498 117.275L68.2123 116.842L69.2633 116.3L69.3957 116.004L70.0535 116.296L70.4817 115.692L72.6381 115.755L72.7588 115.521L72.4902 115.221L72.716 114.585L73.5412 114.11L73.7047 113.887L74.2963 114.215L74.4715 114.628L74.9308 114.714L76.4956 113.864L76.4489 113.572L76.9355 113.638L77.3909 113.268L77.3948 112.89L77.0873 112.862L77.0522 112.426L77.4454 112.394L77.4376 112.106L77.2274 111.989L77.4026 111.72L77.8307 111.821L78.2784 111.151L78.0526 110.968L78.1499 110.839L77.7451 110.531L77.1963 110.629L77.4804 109.939L77.7295 109.97L77.675 109.635L77.8891 109.627L77.6945 109.288L77.5894 108.847L77.7451 108.652L78.8233 109.034L79.3177 108.551V108.356L81.26 108.282L81.4118 106.832L81.3145 106.489L81.5053 105.814L81.4196 105.698L81.8361 105.491L81.8595 104.703L82.6341 104.594L83.1829 104.774L84.1133 104.629L84.4714 104.185L84.8256 104.38L84.8645 103.85L85.6508 103.647L86.04 103.23L86.8575 103.234L88.4845 102.341L89.8469 102.649L90.1428 102.45L90.1389 101.803L90.3257 101.62L90.5982 101.612L90.9719 101.008L90.7422 100.724L91.0302 100.688L91.2638 100.248L91.0847 99.9205L91.6141 99.2929L91.5402 98.7706L91.1042 98.3885L91.2404 98.1469L91.5635 98.0182L91.8204 97.531L91.0925 97.4374L90.9407 95.426L92.3576 95.2662L92.5133 95.3519L92.6651 95.9288L93.393 96.2017L93.8601 96.229L95.0823 95.4338L95.1057 94.775L95.3315 94.5957L95.857 94.8997L96.2851 94.5216L96.9897 94.2565L97.1999 94.2526L97.558 94.5294L97.7604 94.5333L97.8849 94.354L97.7838 94.0694L97.9978 93.9759L98.2859 94.0928L98.4922 94.4514L98.971 94.6152L99.2512 95.0595L99.9052 95.1219L100.263 94.9153L100.843 94.8568L101.221 95.1882L101.264 95.6677L101.98 95.9912L102.844 96.0458L102.79 96.2797L103.155 96.077L103.463 96.2173L103.743 96.0107L103.953 96.0419L104.529 95.8041L105.012 96.2134L105.18 96.1354L105.215 95.9678L105.83 95.9717L105.923 95.465L106.199 95.2584L106.826 95.2311L106.81 94.9816L106.507 94.7243L106.542 94.5528L107.313 94.4242L107.647 94.6503L107.838 94.506V94.1084L108.336 94.1942L108.694 93.9057L108.776 93.9837L108.975 93.8901L109.127 94.0655L109.551 93.9993L109.683 93.7303L109.422 93.5939L109.426 93.4106L109.854 93.4886L110.111 93.4184L110.107 93.2937L109.78 93.1378L109.815 92.8922L110.353 92.9039L110.539 92.6895L110.462 92.4751L110.205 92.4985L110.049 92.1009L110.508 92.0073L110.489 92.1632L110.59 92.1788L111.306 91.9333L111.373 92.2919L111.629 92.6466L112.151 92.7986L112.427 93.473L112.688 93.5471L112.77 93.9369L113.439 94.3696L114.086 95.2428L115.257 95.4377L115.569 95.2778L115.861 95.7846L117.091 96.0107L117.519 95.8898L117.795 96.1159L117.772 95.3012L118.243 94.8335L118.321 94.3384L118.48 94.0733L118.165 93.6718L118.613 93.2898L119.033 93.1105L119.43 92.5297L119.259 92.1009L118.85 91.6682L119.064 91.3875L119.8 91.2628L120.259 90.682L120.364 90.261L120.633 90.0271L120.816 89.9608L121.466 90.1284L121.863 90.0037L122.213 89.6957L122.922 89.9101L123.509 89.9257L124.156 89.61L124.545 89.6217L125.168 89.419L127.005 88.2652Z" fill="#FF1462"/>
<path d="M111.933 51.385L112.276 51.2603L112.268 50.9991L112.797 50.8978L112.898 50.9523L112.937 51.2447L113.762 51.194L114.179 51.4591L114.397 51.0576L115.366 50.8978L115.833 50.352L116.18 50.2273L116.507 50.4456L116.425 50.8822L116.76 51.5721L117.227 52.0399L117.702 52.2621L117.951 52.7961L118.251 52.3362L118.546 52.8273L118.807 52.8546L119.161 52.6753L119.512 52.9482L119.893 53.182L120.598 53.1587L120.917 53.7863L121.267 53.5095L121.497 53.4978L121.871 53.989L122.221 54.1644L122.007 54.5854L122.719 54.0474L123.147 54.024L123.171 53.8057L122.793 53.7551L123.112 53.4471L123.716 53.6693L124.852 54.3866L125.214 54.3281L125.518 54.4879L125.712 54.1527L126.382 53.8876L126.635 53.9266L126.935 54.2501L127.223 54.215L127.293 54.7491L127.846 55.6963L128.258 55.4936L128.811 55.5209L129.2 55.9185L129.531 55.9653L129.698 56.1953L129.994 56.1992L130.119 56.3122L130.076 56.6319L130.691 56.4915L131.166 56.7878L131.337 57.0139L131.403 57.431L131.602 57.5518L131.547 57.7701L132.209 58.347L132.092 58.5848L132.517 58.9435L132.906 59.6646L133.159 59.7153L133.373 59.536L133.688 59.5204L133.696 59.2319L133.895 59.0331L134.482 59.0487L133.883 59.3177L134.007 59.4307L133.902 59.8166L134.439 60.0544L134.584 60.6196L133.591 61.3564V61.5669L133.84 62.0386L133.786 62.7363L134 63.1456L133.416 64.2683L133.427 64.9427L133.116 65.2623L132.995 65.6794L133.054 66.003L133.478 66.4512L133.439 67.1178L132.98 67.4492L132.742 68.0573L131.723 68.2171L130.901 69.2852L130.189 69.6126L129.765 70.135L129.021 70.326L128.644 70.8171L128.749 71.2459L128.667 71.3979L128.278 71.3902L128.079 71.5851L127.449 71.5071L126.421 71.8423L126.008 72.2945L126.016 72.7467L125.666 73.0391L125.37 73.9552L124.965 73.9435L124.743 73.3003L123.864 73.0196L123.661 72.1308L123.198 71.8112L122.528 72.162L121.31 72.1698L120.773 72.3491L120.353 72.8832L120.364 73.1794L120.259 73.2535L119.8 73.2418L119.562 73.3666L119.091 73.2106L118.694 73.3432L118.507 73.1716L117.818 73.7758L117.429 74.5165L117.196 74.5828L117.172 74.9336L116.935 75.0895L116.962 75.3117L116.406 75.3273L116.273 75.0817L116.005 75.0193L115.748 75.3429L115.58 75.3819L115.635 75.6353L115.483 75.7405L114.934 75.5729L114.837 75.7366L114.654 75.7639L114.14 75.5495L114.304 75.8302L114.195 76.0484L113.992 76.0446L113.86 76.2083L113.883 76.4422L113.755 76.602L113.864 76.7267L113.482 76.7462L113.541 76.9333L113.385 77.0425L113.365 77.2257L113.05 77.2296L113.385 77.5765L113.035 77.6194L113.186 77.7168L113.155 77.9702L112.723 78.2236L112.75 78.551L112.462 78.6212L111.836 79.2215L111.863 79.3891L112.03 79.4944L112.007 79.6503L111.555 80.0401L111.17 80.0713L111.322 80.3091L111.034 80.5274L110.987 80.9406L110.676 80.9601L110.839 81.4084L110.606 81.4824L110.232 81.9775L110.224 82.2153L109.683 82.4024L109.671 82.7883L109.274 82.7961L109.037 83.0534L108.85 82.9559L108.589 83.2093L108.134 83.1391L107.819 83.3028L107.694 83.603L107.425 83.7394L107.281 83.6069L107.169 84.0123L106.822 83.7862L106.783 84.1838L107.737 85.4507L108.901 88.3509L109.644 89.0838L109.878 90.0349L110.555 89.9374L110.691 90.0427L110.275 90.8535V91.4343L110.493 91.5669L110.427 91.7189L110.594 91.828L110.497 91.9801L110.033 92.0775L110.193 92.4751L110.446 92.4517L110.524 92.6661L110.337 92.8805L109.8 92.8688L109.765 93.1144L110.092 93.2703V93.3989L109.839 93.4691L109.411 93.3911L109.407 93.5782L109.668 93.7147L109.535 93.9836L109.111 94.0499L108.959 93.8745L108.761 93.968L108.679 93.8901L108.325 94.1785L107.823 94.0967V94.4943L107.632 94.6385L107.297 94.4085L106.526 94.5411L106.491 94.7126L106.795 94.9699L106.807 95.2193L106.18 95.2466L105.9 95.4571L105.81 95.9639L105.195 95.96L105.156 96.1276L104.989 96.2056L104.506 95.7963L103.93 96.034L103.72 96.0068L103.44 96.2134L103.132 96.073L102.766 96.2757L102.817 96.0418L101.953 95.9873L101.236 95.6598L101.197 95.1804L100.82 94.849L100.24 94.9075L99.8818 95.1141L99.2278 95.0517L98.9437 94.6073L98.4649 94.4475L98.2625 94.0889L97.9745 93.9719L97.7604 94.0655L97.8616 94.3501L97.737 94.5294L97.5346 94.5255L97.1765 94.2526H96.9624L96.2618 94.5216L95.8297 94.8958L95.3042 94.5917L95.0784 94.7711L95.0551 95.4298L93.8328 96.2251L93.3657 96.2017L92.6339 95.9288L92.4821 95.3519L92.3303 95.2661L90.9134 95.422L90.1388 94.7516L89.2358 94.6814L88.8621 94.0889L88.0174 93.5665L87.6359 92.9039L87.1221 92.6115L86.7212 92.2139L86.5694 91.637L86.1257 91.4421L85.6547 90.6274L85.172 90.3116L84.4947 89.0564L84.2028 88.2261L83.035 87.8987L82.7509 87.0645L82.1086 86.9047L81.6337 86.2537L81.1043 86.1445L80.9369 85.8327L80.6995 85.8834L80.4737 85.7859L79.6952 84.6515L79.6252 84.2227L85.1019 72.5323L84.5686 72.3374L84.8139 71.0042L84.7127 70.8132L85.1837 70.2831L85.5067 68.8603L85.3277 68.8408L85.1136 68.3691L85.4912 68.3418L85.569 68.0768L85.8688 68.0183L86.3981 66.6033L86.1257 66.1316L86.9742 65.9016L87.0676 65.6014L87.3323 65.3169L87.2506 65.005L87.5854 64.4749L88.033 64.4008L88.6908 63.8005L88.792 63.5822L88.6714 63.3873L88.9594 62.9858L89.7184 62.7987L89.8897 62.4985L90.4697 62.0542L91.3144 61.715L91.7464 61.7501L92.1123 61.411L92.8947 61.563L93.0971 61.2161L94.3544 60.4988L94.6036 60.4637L94.9928 60.9354L95.5961 60.9042L96.3279 61.103L96.5498 61.9957L96.6938 62.0854L97.0558 61.9918L97.0947 61.8047L96.904 61.4461L97.2154 60.8029L98.391 59.6646L98.6907 59.5828L98.679 59.1696L99.0449 58.6628L99.3952 58.5537L99.6872 58.6979L99.9635 58.3276L100.625 58.4328L100.906 58.3198L101.408 58.4367L101.591 58.3782L100.913 57.9611L101.026 57.622L101.345 57.5012L101.341 56.9164L100.664 56.1875L100.536 55.7899L100.66 55.6768L101.015 55.7119L101.252 55.478L101.388 55.5014L101.688 55.0259L102.252 55.096L102.272 54.4879L102.688 54.0396L103.124 53.9422L103.276 54.18L103.397 54.1527L103.498 53.7941L103.864 53.4588L104.436 53.1587L104.658 53.2951L105.028 52.9521L105.592 53.4783L105.686 53.3263L105.639 52.6129L105.791 52.4531L105.931 52.4648L106.184 52.917L106.861 53.1703L107.468 53.0768L107.963 53.1665L108.157 53.0456L108.301 53.2132L108.223 53.5056L108.332 53.5485L108.605 53.4393L109.376 52.4258L109.706 52.2153L110.563 52.9949L110.695 52.9832L110.948 52.6909L111.271 52.6168L111.692 51.9541L111.696 51.424L111.933 51.385Z" fill="#FF1462"/>
<path d="M122.711 33.2938L124.159 33.134L124.447 33.9019L123.786 34.4516L123.143 34.5217L123.062 36.2291L122.851 36.5721L123.031 36.8723L122.789 37.2543L123.334 39.2034L124.903 39.3437L126.008 38.0027L127.013 37.7299L127.254 38.5797L126.296 38.9656L126.183 39.3632L126.452 39.6867L125.973 40.5794L126.113 40.6885L126.051 41.168L125.409 41.0589L125.051 42.9573L124.459 42.93L124.288 43.0196L124.117 42.6883L124.047 42.7896L123.634 42.7779L122.809 42.5635L122.431 42.9066L122.283 43.542L121.882 43.4133L121.824 43.5654L121.664 43.5147L121.217 43.6823L121.376 44.228L121.742 44.5087L121.812 45.3585L122.762 45.6664L122.793 46.3759L123.066 46.4149L123.12 46.5903L123.505 46.8242L124.218 46.5162L124.86 46.45L125.3 47.3621L124.171 47.9157L124.148 48.5861L122.894 48.6797L122.805 49.0188L122.151 48.9253L121.723 49.2566L121.719 49.6113L121.33 49.6386L121.283 50.0752L120.831 50.1142L120.781 50.2896L120.36 50.3676L120.154 51.0887L120.349 51.1784L120.426 51.4785L119.882 51.6617L119.885 51.8294L119.555 51.9307L119.551 52.3244L119.761 52.4492L119.512 52.9482L119.161 52.6753L118.807 52.8546L118.546 52.8273L118.251 52.3362L117.951 52.7961L117.702 52.2621L117.227 52.0399L116.76 51.5721L116.425 50.8822L116.507 50.4456L116.18 50.2273L115.833 50.352L115.366 50.8978L114.397 51.0576L114.179 51.4591L113.762 51.194L112.937 51.2447L112.898 50.9523L112.797 50.8978L112.268 50.9991L112.276 51.2603L111.933 51.385L112.225 49.7673L111.875 49.3268L112.108 49.2722L112.307 48.3289L112.408 48.3016L112.552 47.8377L111.587 47.8728L111.466 47.5375L111.283 47.3894L109.866 47.7052L109.96 47.9936L108.624 48.5082L108.62 47.9819L108.192 47.1906L108.796 46.6176L109.598 46.0835L109.243 44.5399L109.913 44.6179L109.944 44.193L110.528 44.1072L111.01 42.0958L110.987 41.3239L112.747 40.3689L112.863 40.825L113.206 41.3005L113.724 41.0238L113.762 41.4682L114.619 41.1836L115.421 41.0784V40.8601L115.884 40.9107L115.888 40.673L116.152 40.5053L115.993 39.9167L116.285 39.8115L115.833 38.6693L116.643 38.5446L116.939 38.3497L117.071 37.9443L117.523 37.6207L117.18 36.12L117.628 35.9406L117.947 35.9952L117.951 36.1511L117.682 36.2408L117.776 36.576L117.998 36.5721L118.208 36.3577L118.745 36.3928L119.558 36.1394V35.0636L120.31 34.8765L120.376 35.2078L121.583 34.97L121.656 34.4438L122.61 34.4477L122.781 34.7127L123.206 34.4555L123.424 34.0267L123.066 34.0462L122.711 33.2938Z" fill="#FF1462"/>
<path d="M133.49 0.132536L134.408 0.155925L135.545 0.701661L136.028 0.709457L136.37 0.974529L136.907 1.12656L137.005 1.36434L137.374 1.41891L138.052 1.97635L139.048 1.81652L139.706 2.44022L140.909 2.31548L141.68 2.03872L142.189 2.14786L142.843 2.08939L143.135 2.22582L143.509 1.96855L143.98 2.04651L145.152 1.78144L146.203 1.88669L147.666 2.35836L148.488 2.17125L148.924 2.53767H149.519L150.025 3.34458L152.54 11.4644L152.411 13.928L152.524 14.6569L153.863 16.298L153.922 17.409L154.595 19.167L155.739 19.9778L155.331 20.1728L154.747 20.0987L154.287 20.5548L154.202 20.9797L153.98 21.0654L153.672 21.0888L153.435 20.6171L153.225 20.66L152.859 21.0537L152.637 20.8198L152.384 21.0264L152.185 21.0186L151.426 20.6717L150.979 21.1434L150.667 21.0381L150.259 21.389L149.706 21.272L149.492 21.5176L151.749 21.4552V22.0594L151.205 22.5701L151.356 22.9677L151.306 23.7395L150.866 24.2073L150.839 24.5776L150.422 24.8817L150.979 25.2286L150.765 25.6262L151.672 25.6418L151.22 26.0706L151.458 26.4292L152.329 26.9399L152.921 27.0451V27.6377L152.516 27.6688L152.532 27.8326L152.1 27.7351V28.0275L151.57 28.4134H150.208L150.387 28.8266V29.6686H150.804V29.918L151.66 29.805L151.749 30.5807L151.407 30.6236L151.57 31.4344L150.154 31.2785L149.55 31.4305L149.352 31.7697L148.013 31.8905L147.818 31.7736L147.612 31.2707L147.277 31.2044V30.3351L146.989 29.653L146.779 29.4932L146.175 29.3567L146.012 29.1735V28.3978L145.845 28.2613L146.074 27.8988V27.5792L145.969 27.3063L145.409 27.1894L145.179 26.9399L145.576 26.3941L144.743 25.6652L144.245 25.8523L144.144 26.1564L143.408 26.4643L143.26 26.1486L142.976 26.2577L142.968 26.9399L142.38 27.5285L141.979 26.9984L140.905 26.7528L140.52 26.5111L140.356 26.9789L139.691 26.9867L139.177 26.667L139.138 27.3648L138.593 26.9438L137.686 26.975L137.908 27.852L137.787 28.1444L138.34 28.6122L138.192 29.3489L137.596 29.4269L135.074 31.5046L135.07 31.8788L134.369 31.9451L134.393 32.3037L134.77 32.4089L135.039 33.0093L134.584 33.1652L134.58 33.4303L134.272 33.8785L132.482 33.5667L132.524 33.2743L131.859 32.6039L131.606 32.6467L131.325 32.2959L131.399 31.9646L130.956 31.6995L130.952 31.3603L130.329 31.6527L130.275 31.567L130.605 31.0134L130.259 30.0818L130.275 29.7582L129.231 29.4971L128.651 29.653L128.644 30.4365L128.429 30.5378L128.515 30.8614L127.445 31.3175L127.044 30.4326L126.923 30.4716L126.822 30.2689L125.888 30.1013L126.051 30.9316L125.584 30.7834L125.097 30.9277L124.611 30.7717L123.949 30.8848L123.568 31.1966L122.626 31.5708L122.641 32.4128L121.154 32.7637L121.143 33.1262L120.177 33.4264L120.228 34.0734L120.388 34.1241L121.439 33.8863L121.618 33.633L122.711 33.2938L123.066 34.0462L123.424 34.0267L123.206 34.4555L122.781 34.7127L122.61 34.4477L121.656 34.4438L121.583 34.97L120.376 35.2078L120.31 34.8765L119.558 35.0636L118.823 33.8512L117.904 33.9526L117.85 33.3874L117.297 33.2938L117.398 32.7715L117.783 32.6818L118.278 33.0521L118.776 33.0248L118.951 32.2998L117.492 31.5592L116.585 31.4929L116.254 31.2863L115.938 31.3526L115.802 31.5942L115.378 31.5475L115.362 31.3214L115.65 31.3175L115.561 30.9861L114.829 30.8146L114.771 31.4422L114.086 31.3565L113.646 31.6215L113.233 31.2122H112.758L112.423 31.4227L112.455 32.0542L111.945 32.7403L111.633 32.6311L111.419 32.1595L110.135 32.3076L109.52 31.5397L108.157 31.4773L108.165 31.2005L107.858 30.6119L107.13 30.3351L106.9 28.4602L106.483 28.4718L106.433 29.0332L106.094 29.0254L105.931 29.2554L104.35 29.8323L104.171 30.1246L103.587 30.0857L102.895 29.5633L102.322 29.6647L100.789 29.4503L100.415 28.6979L100.462 27.5129L100.649 27.4973L100.738 27.2712L101.19 26.9711L101.645 25.8406L102.034 25.4196L102.49 24.9752L103.144 24.7881L103.299 24.2346L103.86 23.8253L104.331 23.8487L104.782 23.4784L105.133 23.3497L105.125 22.8858L105.285 22.6792L105.156 22.4298L105.32 22.231L105.141 21.9503L105.183 21.5956L105.421 21.3773L105.658 20.6795L105.631 20.3092L105.775 20.1455L105.822 19.6543L106.032 19.1398L106.02 18.941L105.868 18.9137L106.055 18.7227L105.993 18.4342L106.164 17.5532L106.262 17.257L106.507 17.0777L106.592 16.5553L106.857 16.7502L106.83 17.0075L107.118 16.8983L107.324 16.6333L107.134 16.2629L107.519 16.068L107.643 15.7913L108.068 15.7289L107.896 15.4872L107.924 15.2689L108.118 15.4209L108.27 15.3118L108.403 15.4287L108.585 15.3859L108.656 15.2923L108.461 15.0428L108.624 14.8947L108.901 14.9961L109.01 14.8128L109.286 14.7622L109.613 14.5205L109.858 13.9553L110.053 13.9864V14.2203L110.294 14.2359L110.325 13.928L110.594 13.8461L110.532 14.1346L110.73 14.2008L111.034 13.7798L111.886 13.7097L112.182 13.3861L112.311 12.4779L112.548 12.3103L112.536 12.014L112.63 11.9477L113.081 12.0647L113.474 11.7762L113.762 12.1465L114.012 12.0998L114.124 11.7528L114.436 11.4683L114.237 11.0901L114.479 11.1564L114.736 11.0239L114.813 10.751L115.534 10.5015L115.935 10.1507L115.966 9.65174L116.086 9.45683L115.993 9.1138L116.343 9.05923L117.048 8.52128L117.141 8.32638L117.056 7.74946L117.46 7.58963L118.161 6.99322L118.223 6.36952L118.636 5.92124L119.224 5.65617L119.414 5.34432L119.85 5.15721L120.092 4.89603L121.131 4.82977L121.773 5.00908L122.186 4.7596L122.945 4.70503L123.848 4.20217L124.973 3.89032L124.981 3.65643L125.343 3.47712L125.849 3.62135L126.413 2.67801L126.343 1.97245L126.444 1.75415L126.635 1.67619L126.83 1.13435L127.032 0.982326L128.215 0.951141L128.714 0.596412L129.434 0.72505L129.87 0.678272L130.064 0.845891L131.337 0.440487L131.905 0.545736L132.085 0.284563L132.462 0.171517L132.832 0.307951L133.241 0L133.49 0.132536Z" fill="#FF1462"/>
<path d="M155.77 20.1611L155.903 20.4846L156.125 22.5857L156.876 23.837L157.106 25.4898L157.008 27.9885L157.37 32.0074L157.339 34.5607L157.254 35.6873L156.892 36.4864L156.814 36.9425L156.806 37.3167L157.004 37.3829L157.125 38.6342L156.374 40.7938L156.818 42.1464L155.681 42.6688L151.185 39.5503L150.134 39.8232L149.539 40.6379L148.25 41.7839L148.094 42.5207L146.744 45.2844L145.856 46.2979L145.214 47.3738L144.833 49.0266L144.852 50.7652L145 51.958L145.117 52.1256L145.3 52.0944L145.911 51.5565L146.059 52.3244L146.709 52.9793L146.759 53.3613L146.576 53.8447L146.658 54.0981L147.588 55.0258L148.414 56.1212L149.827 56.6903L148.725 58.1131L148.441 58.0897L147.978 57.7155L147.701 57.7896L147.476 57.7077L146.483 57.9455L146.164 57.7194L146.074 57.3569L145.592 57.4427L145.218 57.7623L144.759 57.4388L144.517 57.4738L144.245 57.1971L143.727 57.0139L143.248 57.0606L142.653 57.4855L141.886 57.3413L141.275 57.4232L141.107 57.3569L141.041 56.9866L140.66 56.9086L140.407 57.2049L140.076 57.1737L139.605 57.3101L139.044 57.774L138.605 57.8948L138.281 58.2807L137.437 58.004L136.935 58.2924L136.413 58.2223L136.09 58.0157L135.261 58.2885L134.79 59.1929L134.482 59.0487L133.895 59.0331L133.696 59.2319L133.688 59.5204L133.373 59.536L133.159 59.7153L132.906 59.6646L132.517 58.9435L132.092 58.5848L132.209 58.347L131.547 57.7701L131.602 57.5518L131.403 57.431L131.337 57.0139L131.166 56.7878L130.691 56.4915L130.076 56.6319L130.119 56.3122L129.994 56.1992L129.698 56.1953L129.531 55.9653L129.2 55.9185L128.811 55.5209L128.258 55.4936L127.846 55.6963L127.293 54.7491L127.223 54.215L126.935 54.2501L126.635 53.9266L126.382 53.8876L125.712 54.1527L125.518 54.4879L125.214 54.3281L124.852 54.3866L123.716 53.6693L123.112 53.4471L122.793 53.7551L123.171 53.8057L123.147 54.024L122.719 54.0474L122.007 54.5854L122.221 54.1644L121.871 53.989L121.497 53.4978L121.267 53.5095L120.917 53.7863L120.598 53.1587L119.893 53.182L119.512 52.9482L119.761 52.4492L119.551 52.3244L119.555 51.9307L119.885 51.8294L119.882 51.6617L120.426 51.4785L120.349 51.1784L120.154 51.0887L120.36 50.3676L120.781 50.2896L120.831 50.1142L121.283 50.0752L121.33 49.6386L121.719 49.6113L121.723 49.2566L122.151 48.9253L122.805 49.0188L122.894 48.6797L124.148 48.5861L124.171 47.9157L125.3 47.3621L124.86 46.45L124.218 46.5162L123.505 46.8242L123.12 46.5903L123.066 46.4149L122.793 46.3759L122.762 45.6664L121.812 45.3585L121.742 44.5087L121.376 44.228L121.217 43.6823L121.664 43.5147L121.824 43.5654L121.882 43.4133L122.283 43.542L122.431 42.9066L122.809 42.5635L123.634 42.7779L124.047 42.7896L124.117 42.6883L124.288 43.0196L124.459 42.93L125.051 42.9573L125.409 41.0589L126.051 41.168L126.113 40.6885L125.973 40.5794L126.452 39.6867L126.183 39.3632L126.296 38.9656L127.254 38.5797L127.013 37.7299L126.008 38.0027L124.903 39.3437L123.334 39.2034L122.789 37.2543L123.031 36.8723L122.851 36.5721L123.062 36.2291L123.143 34.5217L123.786 34.4516L124.447 33.9019L124.159 33.134L122.711 33.2938L121.618 33.633L121.439 33.8863L120.388 34.1241L120.228 34.0734L120.177 33.4264L121.143 33.1262L121.154 32.7637L122.641 32.4128L122.626 31.5708L123.568 31.1966L123.949 30.8848L124.611 30.7717L125.097 30.9277L125.584 30.7834L126.051 30.9316L125.888 30.1013L126.822 30.2689L126.923 30.4716L127.044 30.4326L127.445 31.3175L128.515 30.8614L128.429 30.5378L128.644 30.4365L128.651 29.653L129.231 29.4971L130.275 29.7582L130.259 30.0818L130.605 31.0134L130.275 31.567L130.329 31.6527L130.952 31.3603L130.956 31.6995L131.399 31.9646L131.325 32.2959L131.606 32.6467L131.859 32.6039L132.524 33.2743L132.482 33.5667L134.272 33.8785L134.58 33.4303L134.584 33.1652L135.039 33.0093L134.77 32.4089L134.393 32.3037L134.369 31.9451L135.07 31.8788L135.074 31.5046L137.596 29.4269L138.192 29.3489L138.34 28.6122L137.787 28.1444L137.908 27.852L137.686 26.975L138.593 26.9438L139.138 27.3648L139.177 26.667L139.691 26.9867L140.356 26.9789L140.52 26.5111L140.905 26.7528L141.979 26.9984L142.38 27.5285L142.968 26.9399L142.976 26.2577L143.26 26.1486L143.408 26.4643L144.144 26.1564L144.245 25.8523L144.743 25.6652L145.576 26.3941L145.179 26.9399L145.409 27.1894L145.969 27.3063L146.074 27.5792V27.8988L145.845 28.2613L146.012 28.3978V29.1735L146.175 29.3567L146.779 29.4932L146.989 29.653L147.277 30.3351V31.2044L147.612 31.2707L147.818 31.7736L148.013 31.8905L149.352 31.7697L149.55 31.4305L150.154 31.2785L151.57 31.4344L151.407 30.6236L151.749 30.5807L151.66 29.805L150.804 29.918V29.6686H150.387V28.8266L150.208 28.4134H151.57L152.1 28.0275V27.7351L152.532 27.8326L152.516 27.6688L152.921 27.6377V27.0451L152.329 26.9399L151.458 26.4292L151.22 26.0706L151.672 25.6418L150.765 25.6262L150.979 25.2286L150.422 24.8817L150.839 24.5776L150.866 24.2073L151.306 23.7395L151.356 22.9677L151.205 22.5701L151.749 22.0594V21.4552L149.492 21.5176L149.706 21.272L150.259 21.389L150.667 21.0381L150.979 21.1434L151.426 20.6717L152.185 21.0186L152.384 21.0264L152.637 20.8198L152.859 21.0537L153.225 20.66L153.435 20.6171L153.672 21.0888L153.98 21.0654L154.202 20.9797L154.287 20.5548L154.747 20.0987L155.331 20.1728L155.739 19.9778L155.77 20.1611Z" fill="#FF1462"/>
<path d="M36.7881 30L37.0684 30.2417L37.372 30.2689L37.6328 30.5535L37.8741 30.4132L38.0337 30.6081L38.4308 30.6899L38.7149 31.2474L39.6063 31.8555L39.9994 32.5454L40.198 33.2315L40.4821 33.2393L40.5094 33.4342L40.3303 33.6486L40.4004 33.8864L40.7312 34.0345L40.7273 34.3698L41.2334 34.7401L41.0271 35.0013L41.2801 35.1182L41.2489 35.2858L41.4669 35.7809L41.8951 35.9524L41.9379 36.2954L42.1559 36.3188L42.0975 36.5995L42.2454 36.6502L42.4867 36.4864L42.5996 36.5683L42.5529 36.7515L42.2727 36.8295L42.1598 37.2778L42.187 37.4142L42.5374 37.6325L42.7826 38.0769L42.3894 38.5719L42.7008 38.5953L42.6347 39.1761L43.0667 39.6322L43.1874 40.1L43.4171 40.252L43.3003 40.7237L43.709 40.4898L43.7207 41.0628L43.9503 41.2928L43.8686 41.706L44.2345 42.1972L44.0204 42.7312L44.2033 43.0353L44.1255 43.3861L44.2501 43.5732L44.1021 43.8851L44.2228 44.041L44.4213 44.0488L44.4369 44.3256L44.0515 44.7076L43.9387 45.3469L43.709 45.7873L43.4599 45.9043L42.8721 46.7697L42.7476 47.1517L42.5335 47.2491L42.3233 47.5727L42.0858 47.6078L41.9807 47.9625L41.8873 48.6486L42.1754 49.6465L42.1715 50.2039L41.9846 50.5742L42.1754 50.9679L42.1559 51.6579L42.3661 51.8489L42.3427 52.075L42.7242 52.3011L42.7748 52.8897L42.9967 52.5311L43.5416 52.3791L43.8452 52.0945L44.0282 52.114L44.1294 51.923L44.8729 51.6345L45.2894 51.7943L45.6124 51.771L46.0873 52.2348L46.6517 52.266L47.3174 52.5116L48.0569 52.227L48.6097 52.1491L48.9327 52.2582L49.3609 51.9892L49.8708 51.9659L50.1667 51.9698L51.167 52.3713L51.4668 52.2153L51.8093 52.2114L52.2141 52.4219L52.9498 52.3635L53.7945 51.6189L53.814 50.8393L53.6738 50.6015L53.7556 50.391L54.0864 50.1649L55.4916 50.2312L56.457 49.8141L56.7878 49.2255L57.6053 48.3913L57.5975 48.1457L57.7804 47.9976L57.9828 47.1595L58.3293 46.9529L58.5667 46.6371L59.68 46.3058L59.6683 45.9589L60.0342 45.7796L59.9992 45.5574L60.3067 45.2494L60.6258 45.226L60.7932 45.0155L61.5095 45.2689L61.6729 45.1636L61.8131 44.8986L61.8637 44.3178L62.1089 44.3723L62.3775 43.9474L62.9964 43.9825L63.0781 47.331L62.9536 47.3739L62.8368 47.6623L62.9964 49.0072L63.082 49.1241L63.444 49.1553L64.4327 49.0891L64.6001 49.4438L65.1723 49.4087L65.3358 49.5062L65.4759 49.8921L65.6199 49.6504L65.7367 49.666L66.2544 50.1415L66.5425 50.2429L66.1376 51.1628L66.4841 51.6813L66.126 51.8957L66.0793 52.3479L66.3673 52.9326L66.4062 53.4783L66.8344 54.0046L66.5269 54.1878L66.0909 54.2268L65.9547 55.2598L66.0092 55.7158L66.3634 56.3746L67.0251 56.1914L67.138 56.5423L67.5156 56.7722L68.2668 57.8247L69.131 57.8715L69.5163 58.004L70.2365 58.6628L70.6179 58.5147L70.9644 58.8928L70.8164 59.267L72.0776 59.2748L72.5369 59.7192L73.5646 60.1558L73.6774 60.148L74.1095 59.3996L74.8919 59.5633L75.2422 59.306L75.1955 59.1189L74.8296 59.0487L75.1644 58.4757L75.6899 58.6823L76.0597 58.6745L75.8728 57.891L76.0986 57.4622L76.8498 57.969L76.554 58.811L76.48 60.6743L77.099 60.8926L76.842 62.0659L77.1807 62.3933L80.3103 61.68L80.5399 62.0737L80.5205 63.1924L79.7069 64.1358L79.8782 64.432L80.0573 64.5685L80.2675 64.471L80.8124 65.0479L80.4854 65.7457L80.7462 65.773L81.334 66.3811L81.661 66.2252L81.8945 65.6677L82.3422 65.3208L82.4862 64.8297L82.3811 64.319L82.6652 63.9721L82.7158 63.7226L83.0428 63.6134L83.1985 63.2977L83.1479 62.7909L83.3348 62.5103L83.2491 62.1438L83.0506 62.0386L82.9416 61.6644L83.1284 61.2005L83.7046 61.1732L83.7629 60.9159L83.8992 60.8497L83.9614 61.2395L84.1366 61.3798L84.0315 61.6371L84.0938 61.8281L86.4449 61.8047L86.6045 61.9022L84.7049 64.2021L84.5375 64.2332L85.6508 66.4318L85.8649 66.3889L86.1413 66.1316L86.4098 66.6033L85.8843 68.0183L85.5846 68.0768L85.5068 68.3419L85.1292 68.3691L85.3472 68.8408L85.5223 68.8642L85.1993 70.2831L84.7283 70.8133L84.8334 71.0043L84.5881 72.3374L85.1214 72.5323L79.6486 84.2228L79.7147 84.6516L80.4932 85.7898L80.719 85.8873L80.9564 85.8366L81.1238 86.1484L81.6532 86.2576L82.1281 86.9086L82.7703 87.0684L83.0545 87.9026L84.2223 88.23L84.5142 89.0603L85.1915 90.3155L85.6742 90.6313L86.1451 91.4421L86.5889 91.6409L86.7407 92.2178L87.1455 92.6115L87.6554 92.9039L88.0369 93.5705L88.8816 94.0928L89.2591 94.6853L90.1622 94.7555L90.9329 95.426L91.0847 97.4374L91.8126 97.531L91.5557 98.0182L91.2327 98.1469L91.0964 98.3885L91.5324 98.7706L91.6063 99.2929L91.077 99.9205L91.256 100.248L91.0225 100.688L90.7344 100.724L90.9641 101.008L90.5904 101.612L90.3179 101.62L90.1311 101.803L90.135 102.45L89.8391 102.649L88.4768 102.341L86.8497 103.234L86.0323 103.23L85.643 103.647L84.8567 103.85L84.8178 104.38L84.4636 104.185L84.1055 104.629L83.1752 104.774L82.6263 104.594L81.8517 104.703L81.8284 105.491L81.4119 105.698L81.4975 105.814L81.3068 106.489L81.4041 106.832L81.2523 108.282L79.3099 108.356V108.551L78.8156 109.034L77.7373 108.652L77.5816 108.847L77.6867 109.288L76.8382 109.334L76.41 108.555L76.5851 108.313L75.7483 108.325L75.5887 109.077L75.2228 109.245L75.0515 109.666L74.7518 109.677L74.5571 109.179L74.1173 109.034L74.4637 108.765L74.4482 108.524L73.5412 108.13L73.4361 107.736L72.4202 107.748L72.1632 107.619L72.0075 107.682L71.7974 108.083L71.5482 108.064L71.2524 108.216L70.1508 108.001L70.0652 108.333L69.3645 108.372L68.7884 108.722L68.6133 109.463L68.2552 109.884L68.2591 110.212L66.8033 111.498L66.4101 110.905L66.5658 110.414L65.6705 110.009L64.8531 110.258L64.5495 110.122L64.4366 109.732L63.6659 109.985L63.3 109.428L62.3308 109.611L61.7002 109.409L61.9765 108.516L61.5172 108.27L61.4939 107.877L60.7232 107.717L58.9365 106.688L58.6796 106.855L58.5472 107.553L57.722 109.12L57.6636 110.336L56.7684 109.946L56.9319 110.558L56.636 110.831L56.9124 111.393L56.7645 111.864L57.2433 112.371L56.8462 113.236L56.6516 112.648L56.021 112.94L55.986 114.012L55.3087 114.277L55.1802 114.765L54.4913 114.893L53.5999 114.535L53.5726 114.301L53.2106 114.137L52.6851 114.667L52.0974 114.168L51.3266 114.441L51.424 115.412L50.8206 115.657L50.5404 115.591L50.1005 116.09L49.8708 115.961L49.1624 116.23L48.8627 116.152L48.6758 116.764L48.2983 117.107L47.8389 117.252L47.3446 118.581L47.5237 119.088L45.9705 119.594L45.5735 119.372L44.2539 119.735L43.8297 120.085L43.8102 120.39L44.0048 120.612L44.0866 121.45L43.8491 122.245L43.2069 122.51L43.0512 122.861L42.37 122.783L41.8211 122.958L41.4163 122.331L40.7663 122.892L40.05 122.958L39.6452 122.498L39.2949 122.557L39.256 122.019L38.9485 121.898L38.5397 121.216L37.5744 120.811L37.5939 119.739L37.0528 119.22L36.4495 117.002L36.4456 116.417L36.8932 116.64L37.3097 116.211L37.2358 115.872L37.8858 115.217L38.1427 115.357L38.0026 114.519L37.7496 114.433L37.7574 114.059L37.4615 113.868L36.8348 114.316L36.6207 114.757L36.1887 114.745L36.0057 115.31L35.0131 116.222L34.2736 116.343L34.1957 116.164L33.7481 116.082L33.7247 116.382L33.2459 116.71L32.9384 116.515L32.6426 116.792L32.81 117.119L32.3234 117.318L32.0354 116.811L31.8057 116.994L31.8096 117.626L31.432 118.308L31.759 118.99L31.7123 119.212L30.9493 119.707L30.4745 118.733L30.6652 117.388L30.1241 116.363L29.875 116.129L29.731 115.26L30.7119 114.702L30.4861 113.673L30.5718 112.749L30.1358 112.656L29.7582 112.223L29.4352 112.355L29.3028 112.184L28.9291 112.153L28.6411 111.51L28.1428 111.342L28.3842 110.258L27.6135 111.011L27.559 110.843L27.3293 110.746L27.0607 110.882L26.5703 110.558L25.9708 110.512L25.9903 109.798L26.4769 109.323L26.4146 108.952L26.5547 108.843L26.0798 107.631L26.3095 107.627L26.2783 106.89L26.4496 106.746L26.29 106.45L26.1032 106.43L26.3212 105.959L25.6322 105.744L25.928 105.175L25.8112 104.318L25.3753 103.873L25.7567 103.335L25.1806 103.121L24.9315 102.513L25.0288 101.23L24.5228 100.322L24.6435 99.6944L25.3402 99.137L24.3126 98.5445L25.2157 98.256L25.0561 96.7357L24.1413 96.6266L23.3317 95.9132L23.4796 95.4727L23.0787 94.8451L22.0783 94.623L21.1363 93.282L20.3851 93.4847L20.3929 94.2098L20.6498 95.0323L19.4003 93.5471L19.5871 94.2604L19.2679 94.8958L19.0733 95.9444L18.0574 97.6986L17.5941 97.722L17.127 98.1079L16.3135 97.3867L16.0449 97.2971L15.356 97.4374L15.3131 98.9148L14.1376 99.0551L14.6047 99.9439L13.5654 100.895L13.76 101.967L13.0749 101.686L12.3354 99.9517L11.6308 99.0005L11.2727 98.3106L10.7472 96.8644L9.85194 95.5234L9.90255 95.1609L9.6145 94.8413L8.57131 92.8493L8.5752 92.6817L8.2093 92.1827L8.09642 91.294L7.73052 90.5221L7.70328 90.1713L7.40355 89.7308L6.94813 87.9221L6.5978 87.2945L6.24359 86.1562L5.79984 83.8174L5.44951 83.3457L5.38334 82.7103L4.92013 81.4434L4.87342 81.0146L4.19223 80.0713L4.12606 79.5762L3.83023 79.163L3.88083 78.8551L3.57722 77.7714L2.91549 77.214L2.62355 76.7618L2.6508 76.4967L2.32383 75.8886L1.45191 75.2064L1.05876 74.0409L1.12494 73.5926L0.762932 73.3392L0.276368 72.7L0 72.5518L0.151808 71.9398L0.291938 71.7293L1.08601 71.6202L1.49472 71.359L1.56479 71.0783L1.78666 70.8639L2.15256 70.6807L2.31994 70.7002L2.4445 70.9926L2.71697 70.9692L2.94663 70.5482L3.1724 70.3923L3.12179 69.8231L3.54218 69.4567L2.94663 68.6576L2.99334 68.338L3.1724 68.2327L3.43319 68.4276L3.63171 68.3886L3.66285 68.0456L3.45655 67.7766L3.93533 67.7143L3.74849 67.2114L4.16109 67.34L4.30901 67.2543L4.29733 66.2953L4.46082 66.0926L5.01355 66.1979L5.17704 65.9952L5.48844 66.1589L5.70642 65.9016L6.31365 65.7106L6.65619 65.9874L6.81189 66.2953L7.36852 66.5682L7.29067 67.6168L7.52422 68.0066L7.74999 68.1742L8.00689 68.0144L8.32608 68.0534L8.62191 67.8507L8.96056 68.0612L9.29531 68.6537L9.29921 69.0786L9.59893 69.5191L9.54833 69.9791L9.36149 70.248L9.01505 70.2714L8.80097 70.669L8.86714 70.9497L9.19022 71.246L9.27974 71.819L9.78188 71.8346L9.60671 73.5497L10.3852 73.2691L11.0002 73.3353L11.2104 73.1872L11.5102 73.2925L11.6308 73.9668L12.0045 74.1306L12.1913 74.1345L12.5533 73.8616L12.7791 74.0292L12.9971 73.8382L13.3202 74.0214L14.6748 74.0565L15.4572 74.5866L16.1111 75.3624L16.4186 75.3156L16.8234 75.5651L17.2127 75.569L17.384 75.7639L17.6097 75.721L17.746 75.5495L18.0846 75.5924L18.2559 75.3974L18.8086 75.4754L19.1122 75.3857L19.3263 75.5612L19.8674 75.6157L20.2761 75.452L20.6809 75.5105L21.2297 75.1363L21.9109 74.9725L22.4014 75.0661L22.9775 74.9102L25.1651 75.1791L25.5427 75.4247L25.784 76.0095L26.0136 75.9549L26.3406 76.2355L26.8077 76.4071L27.4305 76.2511L27.7964 76.0523L28.139 75.6469L28.6411 75.6274V75.3819L28.3102 75.183L28.1195 74.6178L28.3608 73.8733L28.6722 73.7057L29.1393 73.807L29.7738 73.7485L30.3188 73.464L30.6613 73.0313L30.7936 72.201L31.1829 71.8891L31.3658 71.3629L31.9848 71.1836L32.6815 71.2226L33.1058 70.8561L33.8415 71.0861L34.0244 70.9887L34.1801 70.6223L34.4993 70.3416L34.8419 70.4118L35.453 70.1857L35.7527 70.2324L35.7877 28.811L36.4728 29.6413L36.6246 29.6491L36.7881 30Z" fill="#FF1462"/>
<path d="M158.129 51.8293L158.196 52.0086L158.873 52.3517L159.317 52.0359L159.869 52.2347L160.889 52.3751L165.284 52.4452L166 52.3283L165.895 52.7103L165.657 52.8156L165.548 53.1898L165.622 53.3691L165.891 52.7766L165.564 54.8465L163.824 59.6645L163.859 60.1011L163.077 63.169L162.952 64.0577L163.003 64.5255L162.598 66.9735L161.275 69.6281L161.313 70.1037L161.049 71.2381L160.644 71.8618L157.102 75.3428L154.611 76.3212L153.318 77.7284L152.61 78.7224L151.481 79.7944L151.166 80.2817L150.286 81.1783L148.768 83.3144L147.456 85.7118L147.261 86.3316L147.347 86.7097L147.514 86.7682L147.507 86.889L145.732 88.9628L143.112 94.2681L140.804 98.0649L139.912 99.2148L139.103 100.649L138.787 100.895L138.562 100.712L138.449 100.248L138.145 100.057L138.192 99.6943L137.99 99.4994L138.087 99.1954L138.013 98.9654L137.764 98.712L137.499 98.6886L137.367 98.1896L136.95 98.1507L136.814 97.9557L136.534 98.0298L136.44 97.7063L136.207 97.6127L136.211 97.3204L135.864 97.4529L135.6 97.3126L135.452 97.1293L134.969 96.9072L134.825 96.5173L134.478 96.4901L134.331 96.7161L134.229 96.568L133.568 96.4043L133.416 96.2367L132.82 96.3575L132.575 96.1041L132.213 96.0067L131.454 95.4726L130.928 95.7065H130.317L130.177 95.8975L129.983 95.9326L129.29 95.5896L127.499 95.1257L127.526 94.5098L126.752 94.1278L126.538 94.2097L126.421 94.9659L126.226 94.9932L125.323 94.81L124.907 94.1785L124.444 94.1044L124.249 93.6678L124.498 93.1884L124.175 92.5686L124.533 91.6954L125.405 92.0501L125.677 91.3367L126.145 91.4615L126.281 91.0873L126.666 90.8456L126.526 90.487L127.079 90.1556L127.468 90.1985L127.923 89.6021L127.916 89.1733L127.519 88.9238L127.001 88.2572L127.62 87.7895L127.861 87.8557L127.99 87.5322L128.402 87.423L128.453 87.2866L128.274 86.7058L128.009 86.4407L128.274 85.3999L128.208 85.0218L128.488 84.7684L128.546 84.3981L128.819 84.3435L129.122 84.0979L129.675 84.0005L129.671 83.5483L130.049 83.4119L129.776 83.2248L129.784 82.3672L130.068 82.2424L130.204 81.9891L131.018 81.6889L131.396 80.7144L131.158 80.4376L131.193 80.0283L130.835 79.5605L130.656 78.9836L130.154 78.3755L130.201 77.9545L130.076 77.7479L129.644 77.6076L129.336 77.7401L129.006 77.3737L128.924 77.0618L128.375 76.8396L128.106 76.5863L127.519 76.3914L127.437 75.9665L126.985 75.6624L126.701 75.717L126.328 75.2882L125.849 74.3566L125.374 73.9434L125.67 73.0273L126.016 72.7349L126.012 72.2867L126.421 71.8306L127.452 71.4953L128.079 71.5733L128.278 71.3745L128.667 71.3823L128.749 71.2303L128.644 70.8015L129.021 70.3103L129.765 70.1154L130.189 69.593L130.905 69.2656L131.723 68.1975L132.742 68.0377L132.98 67.4296L133.439 67.0983L133.474 66.4317L133.05 65.9834L132.992 65.6559L133.116 65.2427L133.427 64.9231L133.412 64.2487L133.996 63.1222L133.782 62.7129L133.836 62.0151L133.587 61.5434V61.3329L134.576 60.5962L134.436 60.031L133.898 59.7932L134.004 59.4073L133.879 59.2942L134.478 59.0253L134.786 59.1695L135.257 58.2612L136.086 57.9923L136.409 58.195L136.931 58.269L137.359 57.9806L138.281 58.2573L138.601 57.8714L139.044 57.7506L139.601 57.2867L140.072 57.1503L140.403 57.1814L140.656 56.8852L141.037 56.9632L141.104 57.3335L141.271 57.3958L141.882 57.314L142.649 57.4621L143.248 57.0333L143.727 56.9865L144.245 57.1736L144.517 57.4504L144.759 57.4114L145.214 57.735L145.592 57.4153L146.074 57.3257L146.164 57.6921L146.479 57.9182L147.472 57.6804L147.697 57.7623L147.974 57.6882L148.437 58.0585L148.725 58.0819L149.827 56.6591L151.968 57.4621L156.748 57.4777L156.825 54.5853L157.137 51.7592L158.009 51.7085L158.129 51.8293Z" fill="#FF1462"/>
<path d="M100.462 27.5129L100.415 28.6979L100.789 29.4503L102.322 29.6647L102.895 29.5633L103.587 30.0857L104.171 30.1246L104.35 29.8323L105.931 29.2554L106.094 29.0254L106.433 29.0332L106.483 28.4718L106.9 28.4602L107.13 30.3351L107.858 30.6119L108.165 31.2005L108.157 31.4773L109.52 31.5397L110.135 32.3076L111.419 32.1595L111.633 32.6311L111.945 32.7403L112.455 32.0542L112.423 31.4227L112.758 31.2122H113.233L113.646 31.6215L114.086 31.3565L114.771 31.4422L114.829 30.8146L115.561 30.9861L115.65 31.3175L115.362 31.3214L115.378 31.5475L115.802 31.5942L115.938 31.3526L116.254 31.2863L116.585 31.4929L117.492 31.5592L118.951 32.2998L118.776 33.0248L118.278 33.0521L117.783 32.6818L117.398 32.7715L117.297 33.2938L117.85 33.3874L117.904 33.9526L118.823 33.8512L119.558 35.0636V36.1394L118.745 36.3928L118.208 36.3577L117.998 36.5721L117.776 36.576L117.682 36.2408L117.951 36.1511L117.947 35.9952L117.628 35.9406L117.18 36.12L117.523 37.6207L117.071 37.9443L116.939 38.3497L116.643 38.5446L115.833 38.6693L116.285 39.8115L115.993 39.9167L116.152 40.5053L115.888 40.673L115.884 40.9107L115.421 40.8601V41.0784L114.619 41.1836L113.762 41.4682L113.724 41.0238L113.206 41.3005L112.863 40.825L112.747 40.3689L110.987 41.3239L111.01 42.0958L110.528 44.1072L109.944 44.193L109.913 44.6179L109.243 44.5399L109.598 46.0835L108.796 46.6176L108.192 47.1906L108.62 47.9819L108.624 48.5082L109.96 47.9936L109.866 47.7052L111.283 47.3894L111.466 47.5375L111.587 47.8728L112.552 47.8377L112.408 48.3016L112.307 48.3289L112.108 49.2722L111.875 49.3268L112.225 49.7673L111.933 51.385L111.696 51.424L111.692 51.9541L111.271 52.6168L110.948 52.6909L110.695 52.9832L110.563 52.9949L109.706 52.2153L109.376 52.4258L108.605 53.4393L108.332 53.5485L108.223 53.5056L108.301 53.2132L108.157 53.0456L107.963 53.1665L107.468 53.0768L106.861 53.1703L106.184 52.917L105.931 52.4648L105.791 52.4531L105.639 52.6129L105.686 53.3263L105.592 53.4783L105.028 52.9521L104.658 53.2951L104.436 53.1587L103.864 53.4588L103.498 53.7941L103.397 54.1527L103.276 54.18L103.124 53.9422L102.688 54.0396L102.272 54.4879L102.252 55.096L101.688 55.0259L101.388 55.5014L101.252 55.478L101.015 55.7119L100.66 55.6768L100.536 55.7899L100.664 56.1875L101.341 56.9164L101.345 57.5012L101.026 57.622L100.913 57.9611L101.591 58.3782L101.408 58.4367L100.906 58.3198L100.625 58.4328L99.9635 58.3276L99.6872 58.6979L99.3952 58.5537L99.0449 58.6628L98.679 59.1696L98.6907 59.5828L98.391 59.6646L97.2154 60.8029L96.904 61.4461L97.0947 61.8047L97.0558 61.9918L96.6938 62.0854L96.5498 61.9957L96.3279 61.103L95.5961 60.9042L94.9928 60.9354L94.6036 60.4637L94.3544 60.4988L93.0971 61.2161L92.8947 61.563L92.1123 61.411L91.7464 61.7501L91.3144 61.715L90.4697 62.0542L89.8897 62.4985L89.7184 62.7987L88.9594 62.9858L88.6714 63.3873L88.792 63.5822L88.6908 63.8005L88.033 64.4008L87.5854 64.4749L87.2506 65.005L87.3323 65.3169L87.0676 65.6014L86.9742 65.9016L86.1257 66.1316L85.8493 66.3889L85.6352 66.4317L84.522 64.2332L84.6893 64.202L86.5928 61.9021L86.4332 61.8047L84.0821 61.8281L84.0198 61.6371L84.1288 61.3837L83.9537 61.2395L83.8914 60.8535L83.7551 60.9198L83.6968 61.1732L83.1168 61.2005L82.9299 61.6643L83.0428 62.0386L83.2413 62.1438L83.327 62.5102L83.1401 62.7909L83.1907 63.2977L83.0311 63.6134L82.7042 63.7226L82.6536 63.972L82.3694 64.319L82.4784 64.8335L82.3344 65.3247L81.8867 65.6677L81.6532 66.2251L81.3262 66.3811L80.7384 65.773L80.4776 65.7457L80.8046 65.0479L80.2597 64.471L80.0495 64.5723L79.8704 64.4359L79.6991 64.1357L80.5127 63.1963L80.5321 62.0775L80.3025 61.6799L77.1729 62.3972L76.8343 62.0659L77.0912 60.8925L76.4723 60.6742L76.5462 58.8109L76.842 57.9689L76.0908 57.4622L75.865 57.891L76.0519 58.6745L75.6821 58.6823L75.1566 58.4757L74.8218 59.0487L75.1877 59.1189L75.2305 59.3021L74.8802 59.5633L74.0978 59.3995L73.6657 60.1441L73.5529 60.1519L72.5252 59.7153L72.0659 59.2709L70.8086 59.2631L70.9527 58.8889L70.6062 58.5108L70.2248 58.6589L69.5086 58.0001L69.1232 57.8676L68.2591 57.8208L67.5078 56.7683L67.1302 56.5383L67.0173 56.1875L66.3556 56.3707L66.0014 55.7119L65.9469 55.2558L66.0831 54.2228L66.5191 54.1839L66.8266 54.0006L66.3945 53.4744L66.3556 52.9287L66.0676 52.3401L66.1143 51.8918L66.4685 51.6774L66.1221 51.1589L66.5308 50.239L66.2427 50.1376L65.725 49.6581L65.6121 49.6426L65.4681 49.8842L65.328 49.4983L65.1645 49.4048L64.5923 49.436L64.4249 49.0812L63.4401 49.1475L63.0781 49.1163L62.9925 48.9994L62.8329 47.6545L62.9497 47.3622L63.0781 47.3193L62.9964 43.9747L62.3736 43.9396L62.4359 43.7408L62.755 43.5264L62.7745 42.9261L63.3039 42.8949L63.3545 42.0451L63.553 41.8073L63.2377 41.5618L63.2689 41.4253L63.4674 41.3591L63.479 41.094L63.8566 40.864L63.9228 40.6964L63.4985 40.4196L63.6893 40.2676L63.8372 39.7024L64.098 39.601L64.3159 39.2814L64.3821 38.9344L64.1758 38.8097L64.1875 38.6031L64.6118 38.3692L64.2537 38.0379L64.7013 37.1608L64.5651 36.9815L64.7986 36.8528L65.1022 36.9386L64.9738 36.7515L65.2034 36.1863L65.7912 35.7692L65.869 35.3014L66.1727 35.2L66.2038 34.7985L66.4179 34.9661L66.7215 34.7595L66.6359 35.0636L66.8577 35.1883L67.0368 34.9506L67.2392 34.8804L67.4494 34.9934L68.0917 34.5646L68.5043 34.6231L68.9052 34.5296L69.0726 34.74L69.2555 34.6348L69.3528 34.74L69.6993 34.6738L69.8238 34.8531L70.2948 34.9778L70.5634 34.5841L70.7814 34.588L70.7074 34.7829L71.1317 35.1182L71.12 35.4222L71.4431 35.3131L72.0543 35.9095L72.2722 35.777L72.3579 35.9173L72.2761 36.0147L72.4591 36.1239L72.5369 36.3422L72.7393 36.2837L72.7783 36.1473L72.9067 36.4864L73.2415 36.615L73.3972 36.4903L73.7008 36.7554L73.8253 37.1413L74.382 37.3089L74.2457 37.4648L74.2924 37.6013L74.5182 37.613L74.6155 37.9014L74.9581 37.9794L75.2617 38.5056L75.5536 38.6187L75.8923 38.3926L76.2815 38.4706L76.301 38.7824L76.7953 38.8136L76.8498 38.5407L77.5544 38.5641L77.7762 38.3419L77.7879 38.5485L78.1344 38.455L78.8389 39.3398L79.0763 39.3242L79.0063 39.5698L79.45 39.488L79.4617 39.7179L79.9794 40.0493L80.4932 39.8973L80.6956 39.7257L82.7937 40.6652L83.1479 40.712L83.6072 40.5366L84.2534 40.7354L84.8567 40.5638L85.3238 40.5989L85.4717 40.3416L85.826 40.0688L86.1957 39.9557L86.4332 39.6283L86.7874 39.5737L87.5503 39.9791L89.7691 40.0883L92.2642 38.4706L92.8675 37.1569L92.8519 36.7749L93.3151 35.5859L93.4436 34.666L93.7628 34.2879L95.0084 30.8069L95.2225 30.5925L95.2886 29.9337L95.0317 29.3801L95.0629 28.8227L95.3587 28.811L95.7207 28.4485L96.651 28.4173L100.462 27.5129Z" fill="#FF1462"/>
<path d="M71.8129 135.53L71.3263 135.83L70.6218 135.853L70.2676 136.013L69.8433 136.348L69.8783 136.991L69.7732 137.073L68.8274 137.015L68.3603 136.851L66.6475 136.832L66.1065 136.664L65.6744 136.875L65.2268 136.582L64.059 136.208L63.7671 136.13L63.662 136.204L61.8753 135.752H61.6807L60.8827 136.438L60.6881 136.403L60.439 136.535L59.2206 136.422L58.3799 136.5L57.5897 136.824L57.2277 137.218L57.1031 137.787L57.613 138.087L57.1265 138.293L56.0989 138.348L55.2814 138.785L55.0829 139.206L55.1218 139.35L55.441 139.471L55.0479 139.685L55.0128 139.853L55.1335 139.942L54.8532 140.005L54.6625 140.239L54.0942 140.453L52.9031 140.624L51.2994 140.149L50.3691 140.289L50.1667 140.406L50.2289 140.601L50.081 140.586L49.8669 140.835L48.9561 141.178L47.1811 140.461L45.8888 140.25L44.9196 140.34L44.398 140.652L44.3746 140.804L44.5809 141.143L44.5225 141.416L44.3357 141.595L42.4712 141.279L41.1711 141.533L40.6183 141.767L40.1006 142.215L39.8282 142.784L39.2598 143.022L39.0925 143.256L38.2128 143.735L38.1155 144.187L37.4459 144.289L36.6168 144.753L36.2821 145.189L36.286 145.528L36.4495 145.622L36.3794 145.723L36.0836 145.747L35.9162 145.969L35.6787 146L35.3323 145.762L35.1182 145.77L35.0326 145.563L34.5149 145.166L32.6504 145.115L32.4752 145.283L32.5219 145.361L32.1288 145.47L32.0237 145.365L32.1599 145.271L32.0704 145.022L31.8329 145.064L31.7162 144.729L31.2218 144.507L30.9883 144.024L30.2059 143.798L30.058 143.412L29.8322 143.213L28.6099 143.529L28.7462 143.295L28.9992 143.228L29.2522 142.605L29.5013 142.422L29.2561 141.622L28.7929 140.96L28.9408 140.847L29.2211 141.022L29.3262 140.882L29.587 140.843L29.5325 140.788L28.863 140.777L28.6683 140.874L28.4231 140.784L27.9054 141.151L27.5551 140.96L26.9206 140.893L26.8427 140.753L26.9595 140.636L26.687 140.281L27.0023 140.098L26.9323 140.04L27.0841 139.697L26.8778 139.763L26.6092 140.059L26.6637 140.262L26.0681 139.95L25.64 140.012L25.3597 140.231L24.7914 140.149L24.6474 140.367L24.3009 140.317L24.297 140.535L24.0596 140.391L23.9428 140.527L23.7599 140.036L23.974 139.923L23.7871 139.416L24.1764 139.03L24.2231 138.847L23.8416 138.095L24.3476 137.709L23.7949 137.015L23.3434 136.769L22.779 136.668L21.7591 136.703L20.5758 136.995L20.0075 137.409L19.8751 138.06L20.1904 138.215L20.4123 138.718L20.2372 139.654L20.3617 139.938L20.6186 140.153L20.3773 140.165L20.1671 139.899L19.7973 139.72L19.4197 138.987L19.3224 138.169L19.1278 137.943L18.9721 137.954L18.7969 137.596L19.1434 137.296L19.1122 136.906L19.2991 136.563L19.2446 136.426L19.1083 136.36L19.0032 136.547L18.6763 136.262L18.9176 136.083L19.0811 135.631L19.3224 135.467L19.3068 135.054L19.5988 134.567L19.9141 134.559L20.0192 134.82L20.3461 134.668L20.5057 134.302L20.4824 133.869L20.0892 133.066L19.9997 132.072L19.591 131.261L19.373 131.191L19.1901 130.719L18.684 130.54L18.7619 129.854L18.4661 129.219L17.9834 128.685L17.0492 127.991L17.201 127.835L17.1854 127.648L16.5587 126.478L15.6635 125.519L15.2664 125.367L15.3014 125.172L15.0757 124.989L15.1419 124.849L15.2664 124.892L15.3637 124.51L15.5233 124.553L15.7141 124.861L15.7024 125.165L15.8814 125.246L15.8114 125.441L16.0955 125.57L16.4887 126.131L16.6677 126.143L16.8273 125.983L16.8156 125.89L16.6911 125.995L16.4108 125.788L16.4887 125.449L15.8775 124.95L16.0021 124.311L15.8736 124.011L15.4844 123.675L15.3014 123.664L15.0329 123.8L14.955 124.182L14.7059 124.311L14.4918 124.225L14.5852 123.894L14.2699 123.605L14.3867 123.418L14.3945 123.223L14.2894 123.196L14.414 123.114L14.4101 122.939L14.3361 122.744L14.1493 122.662L14.3867 122.077L13.9975 121.617L14.6047 121.298L14.5307 120.627L14.7721 120.424L14.776 120.276L15.0835 120.378L15.2353 120.105L15.4143 120.144L15.3793 120.436L15.7802 120.608L15.7296 120.717L16.1461 121.122L16.8896 121.04L18.0885 119.844L18.6685 118.744L18.8748 118.074L18.9682 117.232L18.7502 115.544L18.9877 115.517L19.0733 115.111L18.6295 113.166L18.5945 112.893L18.7541 112.776L18.758 112.624L18.2598 111.057L18.4077 110.554L17.9678 109.677L17.8549 108.816L16.8974 107.299L16.7495 106.832L14.5541 104.095L14.3361 103.741L14.3517 103.261L14.2077 103.023L13.4875 102.31L13.0788 101.682L13.7639 101.963L13.5693 100.891L14.6086 99.9398L14.1415 99.0511L15.317 98.9107L15.3598 97.4334L16.0488 97.293L16.3174 97.3827L17.1309 98.1038L17.5941 97.722L18.0574 97.6986L19.0733 95.9444L19.2679 94.8958L19.5871 94.2604L19.4003 93.5471L20.6498 95.0323L20.3929 94.2098L20.3851 93.4847L21.1363 93.282L22.0783 94.623L23.0787 94.8451L23.4796 95.4727L23.3317 95.9132L24.1413 96.6266L25.0561 96.7357L25.2157 98.256L24.3126 98.5445L25.3402 99.137L24.6435 99.6944L24.5228 100.322L25.0327 101.23L24.9354 102.513L25.1845 103.121L25.7606 103.335L25.3792 103.873L25.8151 104.317L25.9319 105.175L25.6361 105.744L26.325 105.959L26.1071 106.43L26.2939 106.45L26.4535 106.746L26.2822 106.89L26.3134 107.627L26.0837 107.631L26.5586 108.843L26.4185 108.952L26.4807 109.323L25.9942 109.798L25.9747 110.512L26.5742 110.558L27.0646 110.882L27.3332 110.745L27.5629 110.843L27.6174 111.01L28.3881 110.258L28.1467 111.342L28.645 111.509L28.933 112.153L29.3067 112.184L29.439 112.355L29.7621 112.223L30.1397 112.656L30.5562 112.745L30.4706 113.669L30.6963 114.698L29.7154 115.256L29.8594 116.125L30.1086 116.359L30.6496 117.384L30.4589 118.729L30.9338 119.703L31.6967 119.208L31.7434 118.986L31.4164 118.304L31.794 117.622L31.7901 116.99L32.0198 116.807L32.3078 117.314L32.7944 117.115L32.627 116.788L32.9228 116.511L33.2304 116.706L33.7091 116.378L33.7325 116.078L34.1801 116.16L34.258 116.339L34.9975 116.218L35.9901 115.306L36.1731 114.741L36.6052 114.753L36.8192 114.312L37.4459 113.864L37.7418 114.055L37.734 114.429L37.987 114.515L38.1271 115.353L37.8702 115.213L37.2202 115.868L37.2941 116.207L36.8776 116.635L36.43 116.413L36.4339 116.998L37.0372 119.216L37.5783 119.734L37.5588 120.806L38.5242 121.212L38.9329 121.894L39.2404 122.015L39.2793 122.553L39.6296 122.494L40.0345 122.954L40.7507 122.888L41.4007 122.327L41.8055 122.954L42.3544 122.779L43.0356 122.857L43.1913 122.506L43.8335 122.241L44.071 121.446L43.9854 120.608L43.7907 120.385L43.8102 120.081L44.2345 119.731L45.554 119.368L45.9511 119.59L47.5042 119.083L47.3251 118.577L47.8195 117.247L48.2788 117.103L48.6564 116.76L48.8432 116.148L49.1429 116.226L49.8514 115.957L50.081 116.086L50.5209 115.587L50.8011 115.653L51.4045 115.408L51.3072 114.437L52.0779 114.164L52.6657 114.663L53.1911 114.133L53.5531 114.297L53.5804 114.53L54.4718 114.889L55.1608 114.76L55.2892 114.273L55.9665 114.008L56.0015 112.936L56.6321 112.644L56.8267 113.232L57.2238 112.367L56.745 111.86L56.8929 111.389L56.6165 110.827L56.9124 110.554L56.7489 109.942L57.6442 110.332L57.7026 109.116L58.5278 107.549L58.6601 106.851L58.917 106.684L60.7037 107.713L61.4744 107.873L61.4978 108.266L61.9571 108.512L61.6807 109.404L62.3113 109.607L63.2805 109.424L63.6464 109.981L64.4171 109.728L64.53 110.118L64.8336 110.254L65.6511 110.005L66.5463 110.41L66.3906 110.901L66.7838 111.494L68.2396 110.207L68.2357 109.88L68.5938 109.459L68.769 108.718L69.3451 108.368L70.0457 108.329L70.1313 107.997L71.2329 108.212L71.5288 108.06L71.7779 108.079L71.9881 107.678L72.1438 107.615L72.4007 107.744L73.4166 107.732L73.5217 108.126L74.4287 108.52L74.4443 108.761L74.0978 109.03L74.5377 109.174L74.7323 109.673L75.032 109.662L75.2033 109.241L75.5692 109.073L75.7288 108.321L76.5657 108.309L76.3905 108.551L76.8187 109.33L77.6672 109.284L77.8619 109.623L77.6478 109.631L77.7023 109.966L77.4532 109.935L77.169 110.625L77.7178 110.527L78.1227 110.835L78.0254 110.964L78.2511 111.147L77.8035 111.817L77.3753 111.716L77.2001 111.985L77.4103 112.102L77.4181 112.39L77.025 112.422L77.06 112.858L77.3675 112.885L77.3636 113.264L76.9082 113.634L76.4216 113.568L76.4684 113.86L74.9036 114.71L74.4443 114.624L74.2691 114.211L73.6774 113.883L73.5139 114.106L72.6887 114.581L72.463 115.217L72.7315 115.517L72.6109 115.751L70.4544 115.688L70.0263 116.292L69.3684 116L69.2361 116.296L68.1851 116.838L68.4225 117.271L68.3525 117.852L68.7884 118.144L69.0492 119.302L68.8741 119.501L68.5938 119.582L69.3334 120.089L69.4579 120.748L69.8238 120.943L69.7538 121.637L68.7223 121.313L67.8815 121.192L67.3287 121.816L66.702 120.97L67.0018 122.038L66.8655 122.257L66.1065 122.233L66.0014 122.518L65.4526 123.032L65.5849 123.57L65.2307 123.894L65.5148 124.217L65.437 124.822L64.8726 125.371L64.4989 126.299L64.3043 126.389L63.6853 127.535L63.3195 127.597L63.3467 128.209L63.5413 128.556L65.0322 128.712L66.4685 128.338L66.6359 128.494L67.2548 128.361L69.0259 128.419L69.3412 128.922L70.9215 128.954L71.0188 129.176L71.8791 129.608L71.9608 130.521L72.6887 131.164L72.6342 131.628L71.8168 131.713L71.5326 131.53L71.3069 131.916L70.2364 132.322L70.2209 132.743L69.7693 133.14L70.7658 133.331L71.0539 133.074L71.5326 133.144L71.5677 133.705L73.0001 134.243L72.4007 135.038L72.5213 135.576L71.8129 135.53Z" fill="#FF1462"/>
</svg>
