<svg width="406" height="115" viewBox="0 0 406 115" fill="none" xmlns="http://www.w3.org/2000/svg">
<path d="M4.85612 18.9373C3.80898 17.621 2.92965 16.2206 2.21812 14.7362C1.53376 13.2548 1.12227 11.9146 0.983643 10.7155L6.25924 9.335C6.42228 10.4405 6.74075 11.5707 7.21465 12.7254C7.70368 13.868 8.29122 14.8705 8.97728 15.7329C9.56704 16.4743 10.0564 16.9497 10.4453 17.1591C10.8494 17.3565 11.1951 17.3408 11.4826 17.1121C11.8155 16.8473 11.8966 16.4369 11.726 15.8809C11.5675 15.34 11.2074 14.5147 10.6458 13.4051C9.9281 11.9749 9.388 10.737 9.02552 9.69132C8.67817 8.63359 8.59663 7.53733 8.7809 6.40255C8.9803 5.25574 9.65493 4.22496 10.8048 3.31022C11.8034 2.51584 12.9338 2.07358 14.1962 1.98343C15.4585 1.89329 16.7635 2.2139 18.1112 2.94525C19.4709 3.69174 20.7826 4.8593 22.0464 6.44793C22.913 7.53728 23.6405 8.70022 24.2289 9.93675C24.8445 11.1764 25.2443 12.3777 25.4283 13.5406L20.2656 15.0166C19.8127 12.8323 19.0325 11.0442 17.9252 9.65228C16.8299 8.27547 15.9494 7.85185 15.2837 8.38144C14.966 8.6342 14.8864 9.03103 15.045 9.57193C15.2186 10.1008 15.5878 10.9065 16.1525 11.9889C16.8884 13.3799 17.4361 14.6118 17.7955 15.6846C18.17 16.7455 18.2651 17.8433 18.0809 18.978C17.9086 20.1279 17.2476 21.1603 16.0977 22.075C15.0991 22.8694 13.9687 23.3116 12.7063 23.4018C11.4591 23.4799 10.1481 23.1517 8.77328 22.4173C7.42562 21.6859 6.1199 20.5259 4.85612 18.9373Z" fill="url(#paint0_linear_349_739)"/>
<path d="M30.4657 24.997L26.3249 20.7312L30.1329 17.0348L43.1814 30.4773L39.3734 34.1737L35.2326 29.9079L24.4745 40.3507L19.7076 35.4398L30.4657 24.997Z" fill="url(#paint1_linear_349_739)"/>
<path d="M43.8163 51.1802L42.3941 49.9878L39.1149 53.899L33.8703 49.502L46.9125 33.9459L54.4016 40.2248C55.8387 41.4296 56.8918 42.7163 57.5611 44.0847C58.2303 45.4531 58.4812 46.824 58.3137 48.1973C58.1462 49.5707 57.5656 50.8499 56.572 52.0352C55.6404 53.1463 54.5749 53.9056 53.3756 54.3129C52.1763 54.7202 50.8976 54.7709 49.5395 54.4648L48.7819 62.0038L43.1817 57.3086L43.8163 51.1802ZM51.2829 47.6008C51.7673 47.023 51.9622 46.4295 51.8674 45.8203C51.7851 45.1962 51.3884 44.5861 50.6773 43.9899L48.7661 42.3876L45.7105 46.0321L47.6217 47.6344C48.3328 48.2307 48.9966 48.5223 49.613 48.5093C50.2418 48.4814 50.7985 48.1786 51.2829 47.6008Z" fill="url(#paint2_linear_349_739)"/>
<path d="M62.9823 72.5201C60.3909 70.7957 58.8368 68.7514 58.32 66.3872C57.8032 64.023 58.3855 61.5773 60.067 59.0503L66.2521 49.7551L71.95 53.5465L65.8773 62.6727C65.0526 63.9121 64.6701 64.958 64.7299 65.8105C64.8057 66.6738 65.2621 67.3839 66.0991 67.9408C66.936 68.4977 67.7592 68.6391 68.5687 68.3649C69.3942 68.1015 70.2193 67.3501 71.044 66.1107L77.1167 56.9845L82.718 60.7116L76.5328 70.0068C74.8513 72.5339 72.8204 74.0156 70.44 74.452C68.0596 74.8884 65.5737 74.2444 62.9823 72.5201Z" fill="url(#paint3_linear_349_739)"/>
<path d="M88.1822 87.2819C86.2753 86.2976 84.7614 85.0156 83.6403 83.4361C82.5282 81.8393 81.9021 80.1019 81.762 78.2237C81.648 76.3372 82.061 74.4835 83.001 72.6625C83.9411 70.8415 85.2086 69.4397 86.8037 68.4573C88.4248 67.4665 90.2038 66.9706 92.1407 66.9697C94.0864 66.9515 96.0128 67.4346 97.9197 68.419C99.672 69.3236 101.076 70.4399 102.131 71.7678C103.186 73.0957 103.859 74.5743 104.149 76.2037L98.54 77.6489C98.1505 75.6637 97.1999 74.281 95.6881 73.5005C94.4169 72.8443 93.1818 72.7289 91.9831 73.1544C90.7932 73.5628 89.8435 74.4542 89.1341 75.8285C88.4246 77.2028 88.2436 78.5019 88.5909 79.7255C88.9472 80.9321 89.761 81.8634 91.0322 82.5197C92.544 83.3001 94.2218 83.2742 96.0657 82.4419L98.136 87.8513C96.6397 88.5583 95.0447 88.8663 93.3511 88.7753C91.6575 88.6843 89.9345 88.1865 88.1822 87.2819Z" fill="url(#paint4_linear_349_739)"/>
<path d="M113.194 81.7925L107.66 79.6205L109.598 74.6804L127.037 81.5246L125.099 86.4648L119.565 84.2928L114.087 98.2494L107.716 95.7491L113.194 81.7925Z" fill="url(#paint5_linear_349_739)"/>
<path d="M135.668 105.751C132.668 104.922 130.553 103.466 129.324 101.381C128.094 99.2966 127.883 96.7914 128.691 93.8656L131.663 83.1034L138.26 84.9252L135.342 95.4917C134.946 96.9267 134.91 98.0397 135.233 98.8309C135.574 99.6273 136.23 100.159 137.199 100.427C138.168 100.694 138.994 100.572 139.677 100.058C140.379 99.5502 140.928 98.5786 141.325 97.1437L144.243 86.5772L150.728 88.3681L147.756 99.1303C146.948 102.056 145.481 104.098 143.356 105.256C141.231 106.414 138.669 106.579 135.668 105.751Z" fill="url(#paint6_linear_349_739)"/>
<path d="M163.324 106.12L161.491 105.826L160.684 110.866L153.926 109.783L157.137 89.7388L166.787 91.2847C168.639 91.5813 170.203 92.1452 171.48 92.9762C172.756 93.8073 173.675 94.8552 174.236 96.1198C174.797 97.3845 174.955 98.7804 174.711 100.308C174.481 101.739 173.956 102.938 173.136 103.903C172.316 104.868 171.244 105.568 169.922 106.002L173.14 112.861L165.924 111.705L163.324 106.12ZM167.895 99.2159C168.015 98.4713 167.877 97.8619 167.483 97.3877C167.093 96.8943 166.439 96.5742 165.523 96.4274L163.06 96.0329L162.308 100.729L164.77 101.124C165.687 101.27 166.406 101.18 166.928 100.852C167.454 100.506 167.776 99.9604 167.895 99.2159Z" fill="url(#paint7_linear_349_739)"/>
<path d="M195.031 110.794L187.325 110.437L185.8 113.908L178.848 113.587L188.651 93.7185L195.372 94.0296L203.298 114.718L196.229 114.391L195.031 110.794ZM193.376 105.782L191.642 100.592L189.436 105.6L193.376 105.782Z" fill="url(#paint8_linear_349_739)"/>
<path d="M243.627 90.8642L237.634 112.074L230.958 112.911L219.917 93.8354L227.225 92.9195L233.506 104.086L236.951 91.7007L243.627 90.8642Z" fill="url(#paint9_linear_349_739)"/>
<path d="M248.329 89.7036L255.018 88.2559L259.312 108.097L252.623 109.544L248.329 89.7036Z" fill="url(#paint10_linear_349_739)"/>
<path d="M275.342 98.5181L273.569 99.0658L275.075 103.942L268.536 105.962L262.545 86.5666L271.882 83.6823C273.674 83.1288 275.326 82.9422 276.839 83.1225C278.352 83.3027 279.639 83.8358 280.702 84.7216C281.765 85.6074 282.524 86.7892 282.981 88.2669C283.409 89.6523 283.469 90.9593 283.16 92.1877C282.852 93.4162 282.2 94.5178 281.206 95.4925L287.128 100.219L280.146 102.376L275.342 98.5181ZM276.386 90.304C276.164 89.5835 275.771 89.0979 275.208 88.8469C274.639 88.5774 273.911 88.5797 273.025 88.8535L270.642 89.5896L272.045 94.1338L274.428 93.3977C275.315 93.1238 275.92 92.7244 276.243 92.1996C276.561 91.6562 276.609 91.0244 276.386 90.304Z" fill="url(#paint11_linear_349_739)"/>
<path d="M303.667 93.9963C300.812 95.2376 298.252 95.4339 295.985 94.5853C293.719 93.7367 291.98 91.9207 290.77 89.1371L286.318 78.8983L292.594 76.1691L296.965 86.2217C297.559 87.5869 298.23 88.4757 298.979 88.888C299.745 89.2927 300.589 89.2946 301.511 88.8937C302.433 88.4928 302.998 87.8779 303.207 87.0492C303.434 86.2128 303.25 85.112 302.656 83.7469L298.285 73.6942L304.455 71.0112L308.907 81.25C310.118 84.0336 310.261 86.5435 309.336 88.7799C308.411 91.0162 306.521 92.755 303.667 93.9963Z" fill="url(#paint12_linear_349_739)"/>
<path d="M327.182 82.2979C325.72 83.1289 324.2 83.7811 322.624 84.2546C321.054 84.7017 319.667 84.901 318.461 84.8525L317.912 79.4269C319.03 79.4368 320.196 79.2969 321.41 79.0072C322.614 78.7008 323.696 78.2753 324.654 77.7308C325.477 77.2628 326.023 76.8528 326.29 76.501C326.547 76.1323 326.585 75.7883 326.404 75.4689C326.193 75.0991 325.801 74.9555 325.225 75.038C324.666 75.111 323.795 75.3392 322.612 75.7224C321.088 76.2104 319.781 76.5526 318.692 76.749C317.593 76.9286 316.498 76.8397 315.405 76.4822C314.303 76.1078 313.389 75.2819 312.663 74.0044C312.032 72.8951 311.77 71.7098 311.876 70.4487C311.983 69.1876 312.501 67.9479 313.432 66.7295C314.38 65.5016 315.736 64.3862 317.501 63.3832C318.711 62.6955 319.973 62.1566 321.285 61.7664C322.605 61.3499 323.854 61.1407 325.031 61.1387L325.691 66.4675C323.463 66.5772 321.576 67.0715 320.03 67.9503C318.5 68.8195 317.945 69.6239 318.366 70.3635C318.566 70.7165 318.946 70.8565 319.505 70.7835C320.054 70.6937 320.907 70.4535 322.064 70.063C323.552 69.551 324.854 69.2004 325.969 69.0112C327.075 68.8052 328.175 68.881 329.267 69.2385C330.377 69.5865 331.294 70.3992 332.02 71.6767C332.651 72.7861 332.913 73.9713 332.807 75.2324C332.691 76.4767 332.164 77.7212 331.226 78.9659C330.295 80.1843 328.947 81.295 327.182 82.2979Z" fill="url(#paint13_linear_349_739)"/>
<path d="M350.406 67.4683C347.879 69.2853 345.418 70.0188 343.023 69.6688C340.628 69.3189 338.545 67.9116 336.773 65.4471L330.256 56.3817L335.813 52.3867L342.212 61.2872C343.081 62.4959 343.925 63.2226 344.744 63.4673C345.578 63.7007 346.404 63.524 347.22 62.9371C348.036 62.3503 348.459 61.6298 348.487 60.7757C348.532 59.9103 348.12 58.8732 347.251 57.6645L340.852 48.764L346.315 44.8366L352.832 53.9019C354.604 56.3664 355.274 58.7894 354.843 61.1708C354.412 63.5522 352.933 65.6514 350.406 67.4683Z" fill="url(#paint14_linear_349_739)"/>
<path d="M351.458 40.5646L356.577 36.0217L366.529 47.2352L373.383 41.1523L376.906 45.1215L364.933 55.7474L351.458 40.5646Z" fill="url(#paint15_linear_349_739)"/>
<path d="M389.108 33.156C387.004 35.4496 384.744 36.6689 382.328 36.8139C379.913 36.959 377.586 36.0055 375.35 33.9535L367.123 26.4055L371.75 21.3624L379.827 28.7732C380.924 29.7796 381.898 30.3192 382.75 30.392C383.614 30.4505 384.386 30.1094 385.066 29.3686C385.746 28.6279 386.013 27.8364 385.867 26.9943C385.734 26.138 385.119 25.2066 384.023 24.2002L375.945 16.7894L380.493 11.8318L388.721 19.3798C390.957 21.4318 392.107 23.6675 392.17 26.0867C392.233 28.5059 391.213 30.8624 389.108 33.156Z" fill="url(#paint16_linear_349_739)"/>
<path d="M384.739 6.36571L388.902 0.933533L405.014 13.2819L400.851 18.714L384.739 6.36571Z" fill="url(#paint17_linear_349_739)"/>
<defs>
<linearGradient id="paint0_linear_349_739" x1="45.7716" y1="16.4299" x2="89.3584" y2="137.614" gradientUnits="userSpaceOnUse">
<stop stop-color="#44107A"/>
<stop offset="1" stop-color="#8327E3"/>
</linearGradient>
<linearGradient id="paint1_linear_349_739" x1="45.7716" y1="16.4299" x2="89.3584" y2="137.614" gradientUnits="userSpaceOnUse">
<stop stop-color="#44107A"/>
<stop offset="1" stop-color="#8327E3"/>
</linearGradient>
<linearGradient id="paint2_linear_349_739" x1="45.7716" y1="16.4299" x2="89.3584" y2="137.614" gradientUnits="userSpaceOnUse">
<stop stop-color="#44107A"/>
<stop offset="1" stop-color="#8327E3"/>
</linearGradient>
<linearGradient id="paint3_linear_349_739" x1="45.7716" y1="16.4299" x2="89.3584" y2="137.614" gradientUnits="userSpaceOnUse">
<stop stop-color="#44107A"/>
<stop offset="1" stop-color="#8327E3"/>
</linearGradient>
<linearGradient id="paint4_linear_349_739" x1="45.7716" y1="16.4299" x2="89.3584" y2="137.614" gradientUnits="userSpaceOnUse">
<stop stop-color="#44107A"/>
<stop offset="1" stop-color="#8327E3"/>
</linearGradient>
<linearGradient id="paint5_linear_349_739" x1="45.7716" y1="16.4299" x2="89.3584" y2="137.614" gradientUnits="userSpaceOnUse">
<stop stop-color="#44107A"/>
<stop offset="1" stop-color="#8327E3"/>
</linearGradient>
<linearGradient id="paint6_linear_349_739" x1="45.7716" y1="16.4299" x2="89.3584" y2="137.614" gradientUnits="userSpaceOnUse">
<stop stop-color="#44107A"/>
<stop offset="1" stop-color="#8327E3"/>
</linearGradient>
<linearGradient id="paint7_linear_349_739" x1="45.7716" y1="16.4299" x2="89.3584" y2="137.614" gradientUnits="userSpaceOnUse">
<stop stop-color="#44107A"/>
<stop offset="1" stop-color="#8327E3"/>
</linearGradient>
<linearGradient id="paint8_linear_349_739" x1="45.7716" y1="16.4299" x2="89.3584" y2="137.614" gradientUnits="userSpaceOnUse">
<stop stop-color="#44107A"/>
<stop offset="1" stop-color="#8327E3"/>
</linearGradient>
<linearGradient id="paint9_linear_349_739" x1="45.7716" y1="16.4299" x2="89.3584" y2="137.614" gradientUnits="userSpaceOnUse">
<stop stop-color="#44107A"/>
<stop offset="1" stop-color="#8327E3"/>
</linearGradient>
<linearGradient id="paint10_linear_349_739" x1="45.7716" y1="16.4299" x2="89.3584" y2="137.614" gradientUnits="userSpaceOnUse">
<stop stop-color="#44107A"/>
<stop offset="1" stop-color="#8327E3"/>
</linearGradient>
<linearGradient id="paint11_linear_349_739" x1="45.7716" y1="16.4299" x2="89.3584" y2="137.614" gradientUnits="userSpaceOnUse">
<stop stop-color="#44107A"/>
<stop offset="1" stop-color="#8327E3"/>
</linearGradient>
<linearGradient id="paint12_linear_349_739" x1="45.7716" y1="16.4299" x2="89.3584" y2="137.614" gradientUnits="userSpaceOnUse">
<stop stop-color="#44107A"/>
<stop offset="1" stop-color="#8327E3"/>
</linearGradient>
<linearGradient id="paint13_linear_349_739" x1="45.7716" y1="16.4299" x2="89.3584" y2="137.614" gradientUnits="userSpaceOnUse">
<stop stop-color="#44107A"/>
<stop offset="1" stop-color="#8327E3"/>
</linearGradient>
<linearGradient id="paint14_linear_349_739" x1="45.7716" y1="16.4299" x2="89.3584" y2="137.614" gradientUnits="userSpaceOnUse">
<stop stop-color="#44107A"/>
<stop offset="1" stop-color="#8327E3"/>
</linearGradient>
<linearGradient id="paint15_linear_349_739" x1="45.7716" y1="16.4299" x2="89.3584" y2="137.614" gradientUnits="userSpaceOnUse">
<stop stop-color="#44107A"/>
<stop offset="1" stop-color="#8327E3"/>
</linearGradient>
<linearGradient id="paint16_linear_349_739" x1="45.7716" y1="16.4299" x2="89.3584" y2="137.614" gradientUnits="userSpaceOnUse">
<stop stop-color="#44107A"/>
<stop offset="1" stop-color="#8327E3"/>
</linearGradient>
<linearGradient id="paint17_linear_349_739" x1="45.7716" y1="16.4299" x2="89.3584" y2="137.614" gradientUnits="userSpaceOnUse">
<stop stop-color="#44107A"/>
<stop offset="1" stop-color="#8327E3"/>
</linearGradient>
</defs>
</svg>
